M48
; DRILL file {KiCad 7.0.7-2.fc38} date Wed 15 Nov 2023 10:54:39 PM CET
; FORMAT={-:-/ absolute / metric / decimal}
; #@! TF.CreationDate,2023-11-15T22:54:39+01:00
; #@! TF.GenerationSoftware,Kicad,Pcbnew,7.0.7-2.fc38
; #@! TF.FileFunction,Plated,1,2,PTH
FMAT,2
METRIC
; #@! TA.AperFunction,Plated,PTH,ViaDrill
T1C0.400
; #@! TA.AperFunction,Plated,PTH,ComponentDrill
T2C0.550
; #@! TA.AperFunction,Plated,PTH,ComponentDrill
T3C0.850
; #@! TA.AperFunction,Plated,PTH,ComponentDrill
T4C1.000
; #@! TA.AperFunction,Plated,PTH,ComponentDrill
T5C1.500
%
G90
G05
T1
X44.0Y-30.0
X44.0Y-31.0
X44.0Y-32.0
X44.0Y-33.0
X44.0Y-45.0
X44.0Y-46.0
X44.0Y-47.0
X44.0Y-48.0
X44.0Y-49.0
X44.0Y-61.0
X44.0Y-62.0
X44.0Y-63.0
X44.0Y-64.0
X45.0Y-29.0
X45.0Y-65.0
X46.0Y-29.0
X46.0Y-65.0
X47.0Y-29.0
X47.0Y-65.0
X48.0Y-29.0
X48.0Y-65.0
X49.0Y-29.0
X49.0Y-65.0
X50.0Y-29.0
X50.0Y-65.0
X50.25Y-56.25
X51.0Y-29.0
X51.0Y-65.0
X52.0Y-29.0
X52.0Y-65.0
X52.75Y-48.25
X53.0Y-29.0
X53.0Y-44.0
X53.0Y-65.0
X53.25Y-36.5
X54.0Y-29.0
X54.0Y-65.0
X54.5Y-46.0
X55.0Y-29.0
X55.0Y-65.0
X55.75Y-42.0
X56.0Y-29.0
X56.0Y-65.0
X57.0Y-29.0
X57.0Y-65.0
X57.25Y-37.0
X58.0Y-29.0
X58.0Y-65.0
X59.0Y-29.0
X59.0Y-65.0
X59.35Y-54.7
X59.725Y-46.12
X59.9Y-48.4
X60.0Y-29.0
X60.0Y-65.0
X60.2Y-57.5
X60.95Y-48.4
X61.0Y-29.0
X61.0Y-65.0
X61.75Y-42.25
X62.0Y-29.0
X62.0Y-65.0
X62.9Y-57.5
X63.0Y-29.0
X63.0Y-60.75
X63.0Y-65.0
X63.75Y-49.0
X63.75Y-53.0
X63.95Y-57.5
X64.0Y-29.0
X64.0Y-65.0
X64.5Y-42.0
X64.75Y-38.25
X65.0Y-29.0
X65.0Y-65.0
X66.0Y-29.0
X66.0Y-65.0
X66.15Y-57.5
X66.5Y-60.75
X66.85Y-38.25
X67.0Y-29.0
X67.0Y-65.0
X67.75Y-53.0
X68.0Y-29.0
X68.0Y-65.0
X68.45Y-49.6
X68.45Y-50.85
X68.55Y-57.45
X68.65Y-48.15
X69.0Y-29.0
X69.0Y-65.0
X70.0Y-29.0
X70.0Y-65.0
X71.0Y-29.0
X71.0Y-37.25
X71.0Y-65.0
X71.739Y-45.35
X72.0Y-29.0
X72.0Y-65.0
X73.0Y-29.0
X73.0Y-65.0
X73.65Y-45.35
X74.0Y-29.0
X74.0Y-65.0
X74.75Y-48.0
X75.0Y-29.0
X75.0Y-65.0
X76.0Y-29.0
X76.0Y-65.0
X76.15Y-48.0
X76.75Y-54.0
X77.0Y-29.0
X77.0Y-65.0
X78.0Y-29.0
X78.0Y-65.0
X79.0Y-29.0
X79.0Y-65.0
X80.0Y-29.0
X80.0Y-65.0
X81.0Y-29.0
X81.0Y-65.0
X82.0Y-29.0
X82.0Y-65.0
X83.0Y-29.0
X83.0Y-65.0
X84.0Y-29.0
X84.0Y-30.9
X84.0Y-33.1
X84.0Y-41.0
X84.0Y-43.0
X84.0Y-45.0
X84.0Y-47.0
X84.0Y-49.0
X84.0Y-51.0
X84.0Y-53.0
X84.0Y-57.0
X84.0Y-59.0
X84.0Y-63.0
X84.0Y-65.0
X85.0Y-29.0
X85.0Y-65.0
X85.25Y-37.0
X86.0Y-29.0
X86.0Y-65.0
X87.0Y-29.0
X87.0Y-65.0
X87.25Y-32.0
X88.0Y-29.0
X88.0Y-65.0
X89.0Y-29.0
X89.0Y-65.0
X90.0Y-29.0
X90.0Y-65.0
X91.0Y-29.0
X91.0Y-65.0
X92.0Y-29.0
X92.0Y-65.0
X93.0Y-29.0
X93.0Y-65.0
X94.0Y-29.0
X94.0Y-65.0
X94.5Y-58.0
X95.0Y-29.0
X95.0Y-65.0
X96.0Y-29.0
X96.0Y-65.0
X97.0Y-29.0
X97.0Y-65.0
X98.0Y-29.0
X98.0Y-65.0
X99.0Y-29.0
X99.0Y-65.0
X100.0Y-29.0
X100.0Y-65.0
X101.0Y-29.0
X101.0Y-65.0
X102.0Y-29.0
X102.0Y-65.0
X103.0Y-29.0
X103.0Y-65.0
X104.0Y-29.0
X104.0Y-65.0
X105.0Y-29.0
X105.0Y-65.0
X106.0Y-29.0
X106.0Y-65.0
X107.0Y-29.0
X107.0Y-65.0
X108.0Y-29.0
X108.0Y-65.0
X109.0Y-29.0
X109.0Y-65.0
X110.0Y-29.0
X110.0Y-65.0
X111.0Y-29.0
X111.0Y-65.0
X112.0Y-29.0
X112.0Y-65.0
X113.0Y-29.0
X113.0Y-65.0
X114.0Y-29.0
X114.0Y-65.0
X114.5Y-56.5
X115.0Y-29.0
X115.0Y-65.0
X116.0Y-29.0
X116.0Y-65.0
X117.0Y-29.0
X117.0Y-65.0
X118.0Y-29.0
X118.0Y-65.0
X119.0Y-29.0
X119.0Y-65.0
X120.0Y-29.0
X120.0Y-65.0
X121.0Y-29.0
X121.0Y-65.0
X122.0Y-29.0
X122.0Y-65.0
X123.0Y-29.0
X123.0Y-65.0
X124.0Y-29.0
X124.0Y-65.0
X125.0Y-29.0
X125.0Y-65.0
X126.0Y-29.0
X126.0Y-65.0
X127.0Y-29.0
X127.0Y-65.0
X128.0Y-29.0
X128.0Y-65.0
X129.0Y-29.0
X129.0Y-65.0
X130.0Y-29.0
X130.0Y-65.0
X131.0Y-29.0
X131.0Y-65.0
X132.0Y-29.0
X132.0Y-65.0
X133.0Y-29.0
X133.0Y-65.0
X134.0Y-29.0
X134.0Y-65.0
X135.0Y-29.0
X135.0Y-65.0
X136.0Y-29.0
X136.0Y-65.0
X137.0Y-29.0
X137.0Y-65.0
X138.0Y-29.0
X138.0Y-65.0
X139.0Y-29.0
X139.0Y-65.0
X140.0Y-29.0
X140.0Y-65.0
X141.0Y-29.0
X141.0Y-65.0
X142.0Y-29.0
X142.0Y-65.0
X143.0Y-29.0
X143.0Y-65.0
X144.0Y-29.0
X144.0Y-65.0
X145.0Y-29.0
X145.0Y-65.0
X146.0Y-29.0
X146.0Y-65.0
X147.0Y-29.0
X147.0Y-65.0
X148.0Y-29.0
X148.0Y-65.0
X149.0Y-29.0
X149.0Y-65.0
X150.0Y-29.0
X150.0Y-65.0
X151.0Y-29.0
X151.0Y-65.0
X152.0Y-29.0
X152.0Y-65.0
X153.0Y-29.0
X153.0Y-65.0
X154.0Y-29.0
X154.0Y-65.0
X155.0Y-29.0
X155.0Y-65.0
X156.0Y-29.0
X156.0Y-65.0
X157.0Y-29.0
X157.0Y-65.0
X158.0Y-29.0
X158.0Y-65.0
X159.0Y-29.0
X159.0Y-65.0
X160.0Y-29.0
X160.0Y-65.0
X161.0Y-29.0
X161.0Y-65.0
X162.0Y-29.0
X162.0Y-65.0
X163.0Y-29.0
X163.0Y-65.0
X164.0Y-29.0
X164.0Y-65.0
X165.0Y-29.0
X165.0Y-65.0
X166.0Y-29.0
X166.0Y-65.0
X167.0Y-29.0
X167.0Y-37.75
X167.0Y-42.25
X167.0Y-51.75
X167.0Y-56.25
X167.0Y-65.0
X168.0Y-29.0
X168.0Y-65.0
X169.0Y-29.0
X169.0Y-65.0
X170.0Y-30.0
X170.0Y-64.0
X171.0Y-31.0
X171.0Y-63.0
X172.0Y-32.0
X172.0Y-62.0
X173.0Y-33.0
X173.0Y-61.0
X174.0Y-34.0
X174.0Y-46.0
X174.0Y-47.0
X174.0Y-48.0
X174.0Y-60.0
T4
X55.3Y-53.66
X55.3Y-56.2
X88.42Y-37.75
X90.96Y-37.75
X93.5Y-37.75
T5
X160.75Y-41.55
X160.75Y-47.0
X160.75Y-52.45
T2
G00X45.175Y-51.125
M15
G01X44.525Y-51.125
M16
G05
G00X45.175Y-58.875
M15
G01X44.525Y-58.875
M16
G05
T3
G00X48.925Y-51.275
M15
G01X48.375Y-51.275
M16
G05
G00X48.925Y-58.725
M15
G01X48.375Y-58.725
M16
G05
T0
M30
