G04 #@! TF.GenerationSoftware,KiCad,Pcbnew,7.0.7-2.fc38*
G04 #@! TF.CreationDate,2023-11-15T22:53:54+01:00*
G04 #@! TF.ProjectId,emfi,656d6669-2e6b-4696-9361-645f70636258,0.1*
G04 #@! TF.SameCoordinates,Original*
G04 #@! TF.FileFunction,Soldermask,Bot*
G04 #@! TF.FilePolarity,Negative*
%FSLAX46Y46*%
G04 Gerber Fmt 4.6, Leading zero omitted, Abs format (unit mm)*
G04 Created by KiCad (PCBNEW 7.0.7-2.fc38) date 2023-11-15 22:53:54*
%MOMM*%
%LPD*%
G01*
G04 APERTURE LIST*
G04 APERTURE END LIST*
G36*
X73219694Y-58731646D02*
G01*
X73264126Y-58738684D01*
X73269923Y-58741637D01*
X73284479Y-58744533D01*
X73312973Y-58763572D01*
X73338887Y-58776776D01*
X73351278Y-58789167D01*
X73371992Y-58803008D01*
X73385832Y-58823721D01*
X73398223Y-58836112D01*
X73411425Y-58862023D01*
X73430467Y-58890521D01*
X73433362Y-58905078D01*
X73436315Y-58910873D01*
X73443349Y-58955284D01*
X73451000Y-58993750D01*
X73451000Y-59506250D01*
X73443348Y-59544718D01*
X73436315Y-59589126D01*
X73433362Y-59594919D01*
X73430467Y-59609479D01*
X73411423Y-59637979D01*
X73398223Y-59663887D01*
X73385834Y-59676275D01*
X73371992Y-59696992D01*
X73351275Y-59710834D01*
X73338887Y-59723223D01*
X73312979Y-59736423D01*
X73284479Y-59755467D01*
X73269919Y-59758362D01*
X73264126Y-59761315D01*
X73219718Y-59768348D01*
X73181250Y-59776000D01*
X72743750Y-59776000D01*
X72705284Y-59768349D01*
X72660873Y-59761315D01*
X72655078Y-59758362D01*
X72640521Y-59755467D01*
X72612023Y-59736425D01*
X72586112Y-59723223D01*
X72573721Y-59710832D01*
X72553008Y-59696992D01*
X72539167Y-59676278D01*
X72526776Y-59663887D01*
X72513572Y-59637973D01*
X72494533Y-59609479D01*
X72491637Y-59594923D01*
X72488684Y-59589126D01*
X72481646Y-59544694D01*
X72474000Y-59506250D01*
X72474000Y-58993750D01*
X72481646Y-58955309D01*
X72488684Y-58910873D01*
X72491638Y-58905075D01*
X72494533Y-58890521D01*
X72513570Y-58862029D01*
X72526776Y-58836112D01*
X72539169Y-58823718D01*
X72553008Y-58803008D01*
X72573718Y-58789169D01*
X72586112Y-58776776D01*
X72612029Y-58763570D01*
X72640521Y-58744533D01*
X72655075Y-58741638D01*
X72660873Y-58738684D01*
X72705309Y-58731646D01*
X72743750Y-58724000D01*
X73181250Y-58724000D01*
X73219694Y-58731646D01*
G37*
G36*
X74794694Y-58731646D02*
G01*
X74839126Y-58738684D01*
X74844923Y-58741637D01*
X74859479Y-58744533D01*
X74887973Y-58763572D01*
X74913887Y-58776776D01*
X74926278Y-58789167D01*
X74946992Y-58803008D01*
X74960832Y-58823721D01*
X74973223Y-58836112D01*
X74986425Y-58862023D01*
X75005467Y-58890521D01*
X75008362Y-58905078D01*
X75011315Y-58910873D01*
X75018349Y-58955284D01*
X75026000Y-58993750D01*
X75026000Y-59506250D01*
X75018348Y-59544718D01*
X75011315Y-59589126D01*
X75008362Y-59594919D01*
X75005467Y-59609479D01*
X74986423Y-59637979D01*
X74973223Y-59663887D01*
X74960834Y-59676275D01*
X74946992Y-59696992D01*
X74926275Y-59710834D01*
X74913887Y-59723223D01*
X74887979Y-59736423D01*
X74859479Y-59755467D01*
X74844919Y-59758362D01*
X74839126Y-59761315D01*
X74794718Y-59768348D01*
X74756250Y-59776000D01*
X74318750Y-59776000D01*
X74280284Y-59768349D01*
X74235873Y-59761315D01*
X74230078Y-59758362D01*
X74215521Y-59755467D01*
X74187023Y-59736425D01*
X74161112Y-59723223D01*
X74148721Y-59710832D01*
X74128008Y-59696992D01*
X74114167Y-59676278D01*
X74101776Y-59663887D01*
X74088572Y-59637973D01*
X74069533Y-59609479D01*
X74066637Y-59594923D01*
X74063684Y-59589126D01*
X74056646Y-59544694D01*
X74049000Y-59506250D01*
X74049000Y-58993750D01*
X74056646Y-58955309D01*
X74063684Y-58910873D01*
X74066638Y-58905075D01*
X74069533Y-58890521D01*
X74088570Y-58862029D01*
X74101776Y-58836112D01*
X74114169Y-58823718D01*
X74128008Y-58803008D01*
X74148718Y-58789169D01*
X74161112Y-58776776D01*
X74187029Y-58763570D01*
X74215521Y-58744533D01*
X74230075Y-58741638D01*
X74235873Y-58738684D01*
X74280309Y-58731646D01*
X74318750Y-58724000D01*
X74756250Y-58724000D01*
X74794694Y-58731646D01*
G37*
G36*
X76469694Y-58731646D02*
G01*
X76514126Y-58738684D01*
X76519923Y-58741637D01*
X76534479Y-58744533D01*
X76562973Y-58763572D01*
X76588887Y-58776776D01*
X76601278Y-58789167D01*
X76621992Y-58803008D01*
X76635832Y-58823721D01*
X76648223Y-58836112D01*
X76661425Y-58862023D01*
X76680467Y-58890521D01*
X76683362Y-58905078D01*
X76686315Y-58910873D01*
X76693349Y-58955284D01*
X76701000Y-58993750D01*
X76701000Y-59506250D01*
X76693348Y-59544718D01*
X76686315Y-59589126D01*
X76683362Y-59594919D01*
X76680467Y-59609479D01*
X76661423Y-59637979D01*
X76648223Y-59663887D01*
X76635834Y-59676275D01*
X76621992Y-59696992D01*
X76601275Y-59710834D01*
X76588887Y-59723223D01*
X76562979Y-59736423D01*
X76534479Y-59755467D01*
X76519919Y-59758362D01*
X76514126Y-59761315D01*
X76469718Y-59768348D01*
X76431250Y-59776000D01*
X75993750Y-59776000D01*
X75955284Y-59768349D01*
X75910873Y-59761315D01*
X75905078Y-59758362D01*
X75890521Y-59755467D01*
X75862023Y-59736425D01*
X75836112Y-59723223D01*
X75823721Y-59710832D01*
X75803008Y-59696992D01*
X75789167Y-59676278D01*
X75776776Y-59663887D01*
X75763572Y-59637973D01*
X75744533Y-59609479D01*
X75741637Y-59594923D01*
X75738684Y-59589126D01*
X75731646Y-59544694D01*
X75724000Y-59506250D01*
X75724000Y-58993750D01*
X75731646Y-58955309D01*
X75738684Y-58910873D01*
X75741638Y-58905075D01*
X75744533Y-58890521D01*
X75763570Y-58862029D01*
X75776776Y-58836112D01*
X75789169Y-58823718D01*
X75803008Y-58803008D01*
X75823718Y-58789169D01*
X75836112Y-58776776D01*
X75862029Y-58763570D01*
X75890521Y-58744533D01*
X75905075Y-58741638D01*
X75910873Y-58738684D01*
X75955309Y-58731646D01*
X75993750Y-58724000D01*
X76431250Y-58724000D01*
X76469694Y-58731646D01*
G37*
G36*
X78044694Y-58731646D02*
G01*
X78089126Y-58738684D01*
X78094923Y-58741637D01*
X78109479Y-58744533D01*
X78137973Y-58763572D01*
X78163887Y-58776776D01*
X78176278Y-58789167D01*
X78196992Y-58803008D01*
X78210832Y-58823721D01*
X78223223Y-58836112D01*
X78236425Y-58862023D01*
X78255467Y-58890521D01*
X78258362Y-58905078D01*
X78261315Y-58910873D01*
X78268349Y-58955284D01*
X78276000Y-58993750D01*
X78276000Y-59506250D01*
X78268348Y-59544718D01*
X78261315Y-59589126D01*
X78258362Y-59594919D01*
X78255467Y-59609479D01*
X78236423Y-59637979D01*
X78223223Y-59663887D01*
X78210834Y-59676275D01*
X78196992Y-59696992D01*
X78176275Y-59710834D01*
X78163887Y-59723223D01*
X78137979Y-59736423D01*
X78109479Y-59755467D01*
X78094919Y-59758362D01*
X78089126Y-59761315D01*
X78044718Y-59768348D01*
X78006250Y-59776000D01*
X77568750Y-59776000D01*
X77530284Y-59768349D01*
X77485873Y-59761315D01*
X77480078Y-59758362D01*
X77465521Y-59755467D01*
X77437023Y-59736425D01*
X77411112Y-59723223D01*
X77398721Y-59710832D01*
X77378008Y-59696992D01*
X77364167Y-59676278D01*
X77351776Y-59663887D01*
X77338572Y-59637973D01*
X77319533Y-59609479D01*
X77316637Y-59594923D01*
X77313684Y-59589126D01*
X77306646Y-59544694D01*
X77299000Y-59506250D01*
X77299000Y-58993750D01*
X77306646Y-58955309D01*
X77313684Y-58910873D01*
X77316638Y-58905075D01*
X77319533Y-58890521D01*
X77338570Y-58862029D01*
X77351776Y-58836112D01*
X77364169Y-58823718D01*
X77378008Y-58803008D01*
X77398718Y-58789169D01*
X77411112Y-58776776D01*
X77437029Y-58763570D01*
X77465521Y-58744533D01*
X77480075Y-58741638D01*
X77485873Y-58738684D01*
X77530309Y-58731646D01*
X77568750Y-58724000D01*
X78006250Y-58724000D01*
X78044694Y-58731646D01*
G37*
G36*
X45220461Y-58251860D02*
G01*
X45244000Y-58253231D01*
X45244631Y-58253380D01*
X45253459Y-58253936D01*
X45331247Y-58273908D01*
X45388817Y-58287553D01*
X45393450Y-58289880D01*
X45405446Y-58292960D01*
X45467382Y-58327009D01*
X45518523Y-58352693D01*
X45526924Y-58359742D01*
X45542954Y-58368555D01*
X45589352Y-58412126D01*
X45629716Y-58445996D01*
X45639699Y-58459406D01*
X45657341Y-58475973D01*
X45688010Y-58524300D01*
X45716394Y-58562426D01*
X45725281Y-58583028D01*
X45741422Y-58608462D01*
X45757201Y-58657027D01*
X45773886Y-58695705D01*
X45778771Y-58723410D01*
X45789912Y-58757699D01*
X45792738Y-58802627D01*
X45799090Y-58838649D01*
X45797126Y-58872366D01*
X45799765Y-58914307D01*
X45792450Y-58952647D01*
X45790651Y-58983555D01*
X45779361Y-59021263D01*
X45770361Y-59068445D01*
X45756272Y-59098384D01*
X45749020Y-59122609D01*
X45726599Y-59161443D01*
X45703549Y-59210428D01*
X45686236Y-59231354D01*
X45676446Y-59248313D01*
X45642025Y-59284796D01*
X45603526Y-59331334D01*
X45586336Y-59343822D01*
X45576836Y-59353893D01*
X45530825Y-59384154D01*
X45476578Y-59423568D01*
X45462312Y-59429216D01*
X45455568Y-59433652D01*
X45400314Y-59453762D01*
X45330680Y-59481333D01*
X45321316Y-59482515D01*
X45319168Y-59483298D01*
X45265100Y-59489617D01*
X45175000Y-59501000D01*
X45167719Y-59501000D01*
X44528645Y-59501000D01*
X44525000Y-59501000D01*
X44479401Y-59498131D01*
X44455999Y-59496768D01*
X44455373Y-59496619D01*
X44446541Y-59496064D01*
X44368713Y-59476081D01*
X44311182Y-59462446D01*
X44306551Y-59460120D01*
X44294554Y-59457040D01*
X44232606Y-59422984D01*
X44181476Y-59397306D01*
X44173076Y-59390257D01*
X44157046Y-59381445D01*
X44110646Y-59337872D01*
X44070283Y-59304003D01*
X44060299Y-59290592D01*
X44042659Y-59274027D01*
X44011990Y-59225701D01*
X43983605Y-59187573D01*
X43974717Y-59166968D01*
X43958578Y-59141538D01*
X43942799Y-59092977D01*
X43926113Y-59054294D01*
X43921227Y-59026583D01*
X43910088Y-58992301D01*
X43907261Y-58947379D01*
X43900909Y-58911350D01*
X43902873Y-58877624D01*
X43900235Y-58835693D01*
X43907547Y-58797360D01*
X43909348Y-58766444D01*
X43920640Y-58728724D01*
X43929639Y-58681555D01*
X43943724Y-58651622D01*
X43950979Y-58627390D01*
X43973407Y-58588542D01*
X43996451Y-58539572D01*
X44013758Y-58518651D01*
X44023553Y-58501686D01*
X44057988Y-58465187D01*
X44096474Y-58418666D01*
X44113657Y-58406181D01*
X44123163Y-58396106D01*
X44169198Y-58365828D01*
X44223422Y-58326432D01*
X44237681Y-58320786D01*
X44244431Y-58316347D01*
X44299728Y-58296220D01*
X44369320Y-58268667D01*
X44378677Y-58267484D01*
X44380831Y-58266701D01*
X44434975Y-58260372D01*
X44525000Y-58249000D01*
X45175000Y-58249000D01*
X45220461Y-58251860D01*
G37*
G36*
X49015891Y-57959241D02*
G01*
X49086195Y-57966630D01*
X49088703Y-57967445D01*
X49097676Y-57968456D01*
X49173880Y-57995120D01*
X49240349Y-58016718D01*
X49247652Y-58020934D01*
X49261694Y-58025848D01*
X49324302Y-58065187D01*
X49380715Y-58097757D01*
X49391290Y-58107279D01*
X49408828Y-58118299D01*
X49456741Y-58166212D01*
X49501167Y-58206214D01*
X49512921Y-58222392D01*
X49531701Y-58241172D01*
X49564562Y-58293470D01*
X49596440Y-58337346D01*
X49606915Y-58360874D01*
X49624152Y-58388306D01*
X49642592Y-58441007D01*
X49662363Y-58485412D01*
X49668912Y-58516225D01*
X49681544Y-58552324D01*
X49687136Y-58601961D01*
X49696064Y-58643960D01*
X49696064Y-58681191D01*
X49701000Y-58725000D01*
X49696064Y-58768808D01*
X49696064Y-58806039D01*
X49687137Y-58848035D01*
X49681544Y-58897676D01*
X49668912Y-58933775D01*
X49662363Y-58964587D01*
X49642594Y-59008987D01*
X49624152Y-59061694D01*
X49606913Y-59089128D01*
X49596439Y-59112655D01*
X49564564Y-59156526D01*
X49531701Y-59208828D01*
X49512919Y-59227609D01*
X49501168Y-59243784D01*
X49456752Y-59283776D01*
X49408828Y-59331701D01*
X49391286Y-59342722D01*
X49380715Y-59352242D01*
X49324322Y-59384799D01*
X49261694Y-59424152D01*
X49247648Y-59429066D01*
X49240349Y-59433281D01*
X49173920Y-59454865D01*
X49097676Y-59481544D01*
X49088698Y-59482555D01*
X49086195Y-59483369D01*
X49015968Y-59490750D01*
X48925000Y-59501000D01*
X48918451Y-59501000D01*
X48381549Y-59501000D01*
X48375000Y-59501000D01*
X48284039Y-59490751D01*
X48213804Y-59483369D01*
X48211299Y-59482555D01*
X48202324Y-59481544D01*
X48126092Y-59454869D01*
X48059650Y-59433281D01*
X48052348Y-59429065D01*
X48038306Y-59424152D01*
X47975689Y-59384807D01*
X47919284Y-59352242D01*
X47908709Y-59342720D01*
X47891172Y-59331701D01*
X47843257Y-59283786D01*
X47798832Y-59243785D01*
X47787077Y-59227606D01*
X47768299Y-59208828D01*
X47735439Y-59156532D01*
X47703559Y-59112653D01*
X47693082Y-59089122D01*
X47675848Y-59061694D01*
X47657409Y-59008998D01*
X47637636Y-58964587D01*
X47631085Y-58933769D01*
X47618456Y-58897676D01*
X47612863Y-58848038D01*
X47603936Y-58806039D01*
X47603936Y-58768808D01*
X47599000Y-58725000D01*
X47603936Y-58681191D01*
X47603936Y-58643960D01*
X47612863Y-58601959D01*
X47618456Y-58552324D01*
X47631085Y-58516231D01*
X47637636Y-58485412D01*
X47657410Y-58440997D01*
X47675848Y-58388306D01*
X47693081Y-58360879D01*
X47703560Y-58337344D01*
X47735448Y-58293453D01*
X47768299Y-58241172D01*
X47787071Y-58222399D01*
X47798831Y-58206214D01*
X47843271Y-58166199D01*
X47891172Y-58118299D01*
X47908707Y-58107280D01*
X47965387Y-58056246D01*
X47932758Y-58004533D01*
X47963457Y-58047972D01*
X48126157Y-57995107D01*
X48202324Y-57968456D01*
X48211293Y-57967445D01*
X48213803Y-57966630D01*
X48284124Y-57959239D01*
X48375000Y-57949000D01*
X48925000Y-57949000D01*
X49015891Y-57959241D01*
G37*
G36*
X168526676Y-57113591D02*
G01*
X168564184Y-57113591D01*
X168594671Y-57122542D01*
X168616450Y-57125410D01*
X168645703Y-57137527D01*
X168687352Y-57149756D01*
X168709334Y-57163883D01*
X168724961Y-57170356D01*
X168753595Y-57192327D01*
X168795342Y-57219157D01*
X168808799Y-57234688D01*
X168818141Y-57241856D01*
X168842357Y-57273416D01*
X168879405Y-57316171D01*
X168885639Y-57329822D01*
X168889643Y-57335040D01*
X168905451Y-57373205D01*
X168932731Y-57432939D01*
X168934079Y-57442319D01*
X168934589Y-57443549D01*
X168938197Y-57470960D01*
X168951000Y-57560000D01*
X168938196Y-57649048D01*
X168934589Y-57676450D01*
X168934079Y-57677678D01*
X168932731Y-57687061D01*
X168905452Y-57746791D01*
X168889643Y-57784961D01*
X168885638Y-57790180D01*
X168879405Y-57803829D01*
X168842356Y-57846584D01*
X168818142Y-57878142D01*
X168808803Y-57885308D01*
X168795342Y-57900843D01*
X168753586Y-57927677D01*
X168724961Y-57949643D01*
X168709339Y-57956113D01*
X168687352Y-57970244D01*
X168645695Y-57982475D01*
X168616450Y-57994589D01*
X168594677Y-57997455D01*
X168564184Y-58006409D01*
X168526668Y-58006409D01*
X168499999Y-58009920D01*
X168473330Y-58006409D01*
X168435816Y-58006409D01*
X168405323Y-57997455D01*
X168383549Y-57994589D01*
X168354301Y-57982474D01*
X168312648Y-57970244D01*
X168290662Y-57956114D01*
X168275038Y-57949643D01*
X168246407Y-57927673D01*
X168204658Y-57900843D01*
X168191198Y-57885310D01*
X168181857Y-57878142D01*
X168157634Y-57846574D01*
X168120595Y-57803829D01*
X168114363Y-57790183D01*
X168110356Y-57784961D01*
X168094536Y-57746768D01*
X168067269Y-57687061D01*
X168065920Y-57677682D01*
X168065410Y-57676450D01*
X168061791Y-57648965D01*
X168049000Y-57560000D01*
X168061790Y-57471042D01*
X168065410Y-57443549D01*
X168065920Y-57442315D01*
X168067269Y-57432939D01*
X168094537Y-57373228D01*
X168110356Y-57335040D01*
X168114362Y-57329818D01*
X168120595Y-57316171D01*
X168157632Y-57273427D01*
X168181857Y-57241857D01*
X168191201Y-57234687D01*
X168204658Y-57219157D01*
X168246407Y-57192326D01*
X168275040Y-57170356D01*
X168290663Y-57163884D01*
X168312648Y-57149756D01*
X168354294Y-57137527D01*
X168383549Y-57125410D01*
X168405329Y-57122542D01*
X168435816Y-57113591D01*
X168473324Y-57113591D01*
X168500000Y-57110079D01*
X168526676Y-57113591D01*
G37*
G36*
X73980596Y-55867159D02*
G01*
X73997141Y-55878215D01*
X74008197Y-55894760D01*
X74012079Y-55914277D01*
X74012079Y-57914277D01*
X74008197Y-57933794D01*
X73997141Y-57950339D01*
X73980596Y-57961395D01*
X73961079Y-57965277D01*
X72461079Y-57965277D01*
X72441562Y-57961395D01*
X72425017Y-57950339D01*
X72413961Y-57933794D01*
X72410079Y-57914277D01*
X72410079Y-55914277D01*
X72413961Y-55894760D01*
X72425017Y-55878215D01*
X72441562Y-55867159D01*
X72461079Y-55863277D01*
X73961079Y-55863277D01*
X73980596Y-55867159D01*
G37*
G36*
X76280596Y-55867159D02*
G01*
X76297141Y-55878215D01*
X76308197Y-55894760D01*
X76312079Y-55914277D01*
X76312079Y-57914277D01*
X76308197Y-57933794D01*
X76297141Y-57950339D01*
X76280596Y-57961395D01*
X76261079Y-57965277D01*
X74761079Y-57965277D01*
X74741562Y-57961395D01*
X74725017Y-57950339D01*
X74713961Y-57933794D01*
X74710079Y-57914277D01*
X74710079Y-55914277D01*
X74713961Y-55894760D01*
X74725017Y-55878215D01*
X74741562Y-55867159D01*
X74761079Y-55863277D01*
X76261079Y-55863277D01*
X76280596Y-55867159D01*
G37*
G36*
X78580596Y-55867159D02*
G01*
X78597141Y-55878215D01*
X78608197Y-55894760D01*
X78612079Y-55914277D01*
X78612079Y-57914277D01*
X78608197Y-57933794D01*
X78597141Y-57950339D01*
X78580596Y-57961395D01*
X78561079Y-57965277D01*
X77061079Y-57965277D01*
X77041562Y-57961395D01*
X77025017Y-57950339D01*
X77013961Y-57933794D01*
X77010079Y-57914277D01*
X77010079Y-55914277D01*
X77013961Y-55894760D01*
X77025017Y-55878215D01*
X77041562Y-55867159D01*
X77061079Y-55863277D01*
X78561079Y-55863277D01*
X78580596Y-55867159D01*
G37*
G36*
X47626676Y-57053591D02*
G01*
X47664184Y-57053591D01*
X47694671Y-57062542D01*
X47716450Y-57065410D01*
X47745703Y-57077527D01*
X47787352Y-57089756D01*
X47809334Y-57103883D01*
X47824961Y-57110356D01*
X47853595Y-57132327D01*
X47895342Y-57159157D01*
X47908799Y-57174688D01*
X47918141Y-57181856D01*
X47942357Y-57213416D01*
X47979405Y-57256171D01*
X47985639Y-57269822D01*
X47989643Y-57275040D01*
X48005451Y-57313205D01*
X48032731Y-57372939D01*
X48034079Y-57382319D01*
X48034589Y-57383549D01*
X48038198Y-57410962D01*
X48051000Y-57500000D01*
X48038196Y-57589050D01*
X48034589Y-57616450D01*
X48034079Y-57617678D01*
X48032731Y-57627061D01*
X48005452Y-57686791D01*
X47989643Y-57724961D01*
X47985638Y-57730179D01*
X47979405Y-57743829D01*
X47942354Y-57786587D01*
X47861624Y-57891796D01*
X47852950Y-57878048D01*
X47809344Y-57896110D01*
X47787352Y-57910244D01*
X47745693Y-57922475D01*
X47716448Y-57934590D01*
X47694673Y-57937456D01*
X47664184Y-57946409D01*
X47626669Y-57946409D01*
X47599999Y-57949920D01*
X47573330Y-57946409D01*
X47535816Y-57946409D01*
X47505323Y-57937455D01*
X47483549Y-57934589D01*
X47454301Y-57922474D01*
X47412648Y-57910244D01*
X47390662Y-57896114D01*
X47375038Y-57889643D01*
X47346407Y-57867673D01*
X47304658Y-57840843D01*
X47291198Y-57825310D01*
X47281857Y-57818142D01*
X47257634Y-57786574D01*
X47220595Y-57743829D01*
X47214363Y-57730183D01*
X47210356Y-57724961D01*
X47194536Y-57686768D01*
X47167269Y-57627061D01*
X47165920Y-57617682D01*
X47165410Y-57616450D01*
X47161791Y-57588965D01*
X47149000Y-57500000D01*
X47161790Y-57411042D01*
X47165410Y-57383549D01*
X47165920Y-57382315D01*
X47167269Y-57372939D01*
X47194537Y-57313228D01*
X47210356Y-57275040D01*
X47214362Y-57269818D01*
X47220595Y-57256171D01*
X47257632Y-57213427D01*
X47281857Y-57181857D01*
X47291201Y-57174687D01*
X47304658Y-57159157D01*
X47346407Y-57132326D01*
X47375040Y-57110356D01*
X47390663Y-57103884D01*
X47412648Y-57089756D01*
X47454294Y-57077527D01*
X47483549Y-57065410D01*
X47505329Y-57062542D01*
X47535816Y-57053591D01*
X47573324Y-57053591D01*
X47600000Y-57050079D01*
X47626676Y-57053591D01*
G37*
G36*
X56169517Y-55302882D02*
G01*
X56186062Y-55313938D01*
X56197118Y-55330483D01*
X56201000Y-55350000D01*
X56201000Y-57050000D01*
X56197118Y-57069517D01*
X56186062Y-57086062D01*
X56169517Y-57097118D01*
X56150000Y-57101000D01*
X54450000Y-57101000D01*
X54430483Y-57097118D01*
X54413938Y-57086062D01*
X54402882Y-57069517D01*
X54399000Y-57050000D01*
X54399000Y-55350000D01*
X54402882Y-55330483D01*
X54413938Y-55313938D01*
X54430483Y-55302882D01*
X54450000Y-55299000D01*
X56150000Y-55299000D01*
X56169517Y-55302882D01*
G37*
G36*
X61794694Y-55906646D02*
G01*
X61839126Y-55913684D01*
X61844923Y-55916637D01*
X61859479Y-55919533D01*
X61887973Y-55938572D01*
X61913887Y-55951776D01*
X61926278Y-55964167D01*
X61946992Y-55978008D01*
X61960832Y-55998721D01*
X61973223Y-56011112D01*
X61986425Y-56037023D01*
X62005467Y-56065521D01*
X62008362Y-56080078D01*
X62011315Y-56085873D01*
X62018349Y-56130284D01*
X62026000Y-56168750D01*
X62026000Y-56606250D01*
X62018348Y-56644718D01*
X62011315Y-56689126D01*
X62008362Y-56694919D01*
X62005467Y-56709479D01*
X61986423Y-56737979D01*
X61973223Y-56763887D01*
X61960834Y-56776275D01*
X61946992Y-56796992D01*
X61926275Y-56810834D01*
X61913887Y-56823223D01*
X61887979Y-56836423D01*
X61859479Y-56855467D01*
X61844919Y-56858362D01*
X61839126Y-56861315D01*
X61794718Y-56868348D01*
X61756250Y-56876000D01*
X61243750Y-56876000D01*
X61205284Y-56868349D01*
X61160873Y-56861315D01*
X61155078Y-56858362D01*
X61140521Y-56855467D01*
X61112023Y-56836425D01*
X61086112Y-56823223D01*
X61073721Y-56810832D01*
X61053008Y-56796992D01*
X61039167Y-56776278D01*
X61026776Y-56763887D01*
X61013572Y-56737973D01*
X60994533Y-56709479D01*
X60991637Y-56694923D01*
X60988684Y-56689126D01*
X60981646Y-56644694D01*
X60974000Y-56606250D01*
X60974000Y-56168750D01*
X60981646Y-56130309D01*
X60988684Y-56085873D01*
X60991638Y-56080075D01*
X60994533Y-56065521D01*
X61013570Y-56037029D01*
X61026776Y-56011112D01*
X61039169Y-55998718D01*
X61053008Y-55978008D01*
X61073718Y-55964169D01*
X61086112Y-55951776D01*
X61112029Y-55938570D01*
X61140521Y-55919533D01*
X61155075Y-55916638D01*
X61160873Y-55913684D01*
X61205309Y-55906646D01*
X61243750Y-55899000D01*
X61756250Y-55899000D01*
X61794694Y-55906646D01*
G37*
G36*
X63344694Y-55906646D02*
G01*
X63389126Y-55913684D01*
X63394923Y-55916637D01*
X63409479Y-55919533D01*
X63437973Y-55938572D01*
X63463887Y-55951776D01*
X63476278Y-55964167D01*
X63496992Y-55978008D01*
X63510832Y-55998721D01*
X63523223Y-56011112D01*
X63536425Y-56037023D01*
X63555467Y-56065521D01*
X63558362Y-56080078D01*
X63561315Y-56085873D01*
X63568349Y-56130284D01*
X63576000Y-56168750D01*
X63576000Y-56606250D01*
X63568348Y-56644718D01*
X63561315Y-56689126D01*
X63558362Y-56694919D01*
X63555467Y-56709479D01*
X63536423Y-56737979D01*
X63523223Y-56763887D01*
X63510834Y-56776275D01*
X63496992Y-56796992D01*
X63476275Y-56810834D01*
X63463887Y-56823223D01*
X63437979Y-56836423D01*
X63409479Y-56855467D01*
X63394919Y-56858362D01*
X63389126Y-56861315D01*
X63344718Y-56868348D01*
X63306250Y-56876000D01*
X62793750Y-56876000D01*
X62755284Y-56868349D01*
X62710873Y-56861315D01*
X62705078Y-56858362D01*
X62690521Y-56855467D01*
X62662023Y-56836425D01*
X62636112Y-56823223D01*
X62623721Y-56810832D01*
X62603008Y-56796992D01*
X62589167Y-56776278D01*
X62576776Y-56763887D01*
X62563572Y-56737973D01*
X62544533Y-56709479D01*
X62541637Y-56694923D01*
X62538684Y-56689126D01*
X62531646Y-56644694D01*
X62524000Y-56606250D01*
X62524000Y-56168750D01*
X62531646Y-56130309D01*
X62538684Y-56085873D01*
X62541638Y-56080075D01*
X62544533Y-56065521D01*
X62563570Y-56037029D01*
X62576776Y-56011112D01*
X62589169Y-55998718D01*
X62603008Y-55978008D01*
X62623718Y-55964169D01*
X62636112Y-55951776D01*
X62662029Y-55938570D01*
X62690521Y-55919533D01*
X62705075Y-55916638D01*
X62710873Y-55913684D01*
X62755309Y-55906646D01*
X62793750Y-55899000D01*
X63306250Y-55899000D01*
X63344694Y-55906646D01*
G37*
G36*
X66444694Y-55906646D02*
G01*
X66489126Y-55913684D01*
X66494923Y-55916637D01*
X66509479Y-55919533D01*
X66537973Y-55938572D01*
X66563887Y-55951776D01*
X66576278Y-55964167D01*
X66596992Y-55978008D01*
X66610832Y-55998721D01*
X66623223Y-56011112D01*
X66636425Y-56037023D01*
X66655467Y-56065521D01*
X66658362Y-56080078D01*
X66661315Y-56085873D01*
X66668349Y-56130284D01*
X66676000Y-56168750D01*
X66676000Y-56606250D01*
X66668348Y-56644718D01*
X66661315Y-56689126D01*
X66658362Y-56694919D01*
X66655467Y-56709479D01*
X66636423Y-56737979D01*
X66623223Y-56763887D01*
X66610834Y-56776275D01*
X66596992Y-56796992D01*
X66576275Y-56810834D01*
X66563887Y-56823223D01*
X66537979Y-56836423D01*
X66509479Y-56855467D01*
X66494919Y-56858362D01*
X66489126Y-56861315D01*
X66444718Y-56868348D01*
X66406250Y-56876000D01*
X65893750Y-56876000D01*
X65855284Y-56868349D01*
X65810873Y-56861315D01*
X65805078Y-56858362D01*
X65790521Y-56855467D01*
X65762023Y-56836425D01*
X65736112Y-56823223D01*
X65723721Y-56810832D01*
X65703008Y-56796992D01*
X65689167Y-56776278D01*
X65676776Y-56763887D01*
X65663572Y-56737973D01*
X65644533Y-56709479D01*
X65641637Y-56694923D01*
X65638684Y-56689126D01*
X65631646Y-56644694D01*
X65624000Y-56606250D01*
X65624000Y-56168750D01*
X65631646Y-56130309D01*
X65638684Y-56085873D01*
X65641638Y-56080075D01*
X65644533Y-56065521D01*
X65663570Y-56037029D01*
X65676776Y-56011112D01*
X65689169Y-55998718D01*
X65703008Y-55978008D01*
X65723718Y-55964169D01*
X65736112Y-55951776D01*
X65762029Y-55938570D01*
X65790521Y-55919533D01*
X65805075Y-55916638D01*
X65810873Y-55913684D01*
X65855309Y-55906646D01*
X65893750Y-55899000D01*
X66406250Y-55899000D01*
X66444694Y-55906646D01*
G37*
G36*
X67994694Y-55906646D02*
G01*
X68039126Y-55913684D01*
X68044923Y-55916637D01*
X68059479Y-55919533D01*
X68087973Y-55938572D01*
X68113887Y-55951776D01*
X68126278Y-55964167D01*
X68146992Y-55978008D01*
X68160832Y-55998721D01*
X68173223Y-56011112D01*
X68186425Y-56037023D01*
X68205467Y-56065521D01*
X68208362Y-56080078D01*
X68211315Y-56085873D01*
X68218349Y-56130284D01*
X68226000Y-56168750D01*
X68226000Y-56606250D01*
X68218348Y-56644718D01*
X68211315Y-56689126D01*
X68208362Y-56694919D01*
X68205467Y-56709479D01*
X68186423Y-56737979D01*
X68173223Y-56763887D01*
X68160834Y-56776275D01*
X68146992Y-56796992D01*
X68126275Y-56810834D01*
X68113887Y-56823223D01*
X68087979Y-56836423D01*
X68059479Y-56855467D01*
X68044919Y-56858362D01*
X68039126Y-56861315D01*
X67994718Y-56868348D01*
X67956250Y-56876000D01*
X67443750Y-56876000D01*
X67405284Y-56868349D01*
X67360873Y-56861315D01*
X67355078Y-56858362D01*
X67340521Y-56855467D01*
X67312023Y-56836425D01*
X67286112Y-56823223D01*
X67273721Y-56810832D01*
X67253008Y-56796992D01*
X67239167Y-56776278D01*
X67226776Y-56763887D01*
X67213572Y-56737973D01*
X67194533Y-56709479D01*
X67191637Y-56694923D01*
X67188684Y-56689126D01*
X67181646Y-56644694D01*
X67174000Y-56606250D01*
X67174000Y-56168750D01*
X67181646Y-56130309D01*
X67188684Y-56085873D01*
X67191638Y-56080075D01*
X67194533Y-56065521D01*
X67213570Y-56037029D01*
X67226776Y-56011112D01*
X67239169Y-55998718D01*
X67253008Y-55978008D01*
X67273718Y-55964169D01*
X67286112Y-55951776D01*
X67312029Y-55938570D01*
X67340521Y-55919533D01*
X67355075Y-55916638D01*
X67360873Y-55913684D01*
X67405309Y-55906646D01*
X67443750Y-55899000D01*
X67956250Y-55899000D01*
X67994694Y-55906646D01*
G37*
G36*
X61794694Y-54331646D02*
G01*
X61839126Y-54338684D01*
X61844923Y-54341637D01*
X61859479Y-54344533D01*
X61887973Y-54363572D01*
X61913887Y-54376776D01*
X61926278Y-54389167D01*
X61946992Y-54403008D01*
X61960832Y-54423721D01*
X61973223Y-54436112D01*
X61986425Y-54462023D01*
X62005467Y-54490521D01*
X62008362Y-54505078D01*
X62011315Y-54510873D01*
X62018349Y-54555284D01*
X62026000Y-54593750D01*
X62026000Y-55031250D01*
X62018348Y-55069718D01*
X62011315Y-55114126D01*
X62008362Y-55119919D01*
X62005467Y-55134479D01*
X61986423Y-55162979D01*
X61973223Y-55188887D01*
X61960834Y-55201275D01*
X61946992Y-55221992D01*
X61926275Y-55235834D01*
X61913887Y-55248223D01*
X61887979Y-55261423D01*
X61859479Y-55280467D01*
X61844919Y-55283362D01*
X61839126Y-55286315D01*
X61794718Y-55293348D01*
X61756250Y-55301000D01*
X61243750Y-55301000D01*
X61205284Y-55293349D01*
X61160873Y-55286315D01*
X61155078Y-55283362D01*
X61140521Y-55280467D01*
X61112023Y-55261425D01*
X61086112Y-55248223D01*
X61073721Y-55235832D01*
X61053008Y-55221992D01*
X61039167Y-55201278D01*
X61026776Y-55188887D01*
X61013572Y-55162973D01*
X60994533Y-55134479D01*
X60991637Y-55119923D01*
X60988684Y-55114126D01*
X60981646Y-55069694D01*
X60974000Y-55031250D01*
X60974000Y-54593750D01*
X60981646Y-54555309D01*
X60988684Y-54510873D01*
X60991638Y-54505075D01*
X60994533Y-54490521D01*
X61013570Y-54462029D01*
X61026776Y-54436112D01*
X61039169Y-54423718D01*
X61053008Y-54403008D01*
X61073718Y-54389169D01*
X61086112Y-54376776D01*
X61112029Y-54363570D01*
X61140521Y-54344533D01*
X61155075Y-54341638D01*
X61160873Y-54338684D01*
X61205309Y-54331646D01*
X61243750Y-54324000D01*
X61756250Y-54324000D01*
X61794694Y-54331646D01*
G37*
G36*
X63344694Y-54331646D02*
G01*
X63389126Y-54338684D01*
X63394923Y-54341637D01*
X63409479Y-54344533D01*
X63437973Y-54363572D01*
X63463887Y-54376776D01*
X63476278Y-54389167D01*
X63496992Y-54403008D01*
X63510832Y-54423721D01*
X63523223Y-54436112D01*
X63536425Y-54462023D01*
X63555467Y-54490521D01*
X63558362Y-54505078D01*
X63561315Y-54510873D01*
X63568349Y-54555284D01*
X63576000Y-54593750D01*
X63576000Y-55031250D01*
X63568348Y-55069718D01*
X63561315Y-55114126D01*
X63558362Y-55119919D01*
X63555467Y-55134479D01*
X63536423Y-55162979D01*
X63523223Y-55188887D01*
X63510834Y-55201275D01*
X63496992Y-55221992D01*
X63476275Y-55235834D01*
X63463887Y-55248223D01*
X63437979Y-55261423D01*
X63409479Y-55280467D01*
X63394919Y-55283362D01*
X63389126Y-55286315D01*
X63344718Y-55293348D01*
X63306250Y-55301000D01*
X62793750Y-55301000D01*
X62755284Y-55293349D01*
X62710873Y-55286315D01*
X62705078Y-55283362D01*
X62690521Y-55280467D01*
X62662023Y-55261425D01*
X62636112Y-55248223D01*
X62623721Y-55235832D01*
X62603008Y-55221992D01*
X62589167Y-55201278D01*
X62576776Y-55188887D01*
X62563572Y-55162973D01*
X62544533Y-55134479D01*
X62541637Y-55119923D01*
X62538684Y-55114126D01*
X62531646Y-55069694D01*
X62524000Y-55031250D01*
X62524000Y-54593750D01*
X62531646Y-54555309D01*
X62538684Y-54510873D01*
X62541638Y-54505075D01*
X62544533Y-54490521D01*
X62563570Y-54462029D01*
X62576776Y-54436112D01*
X62589169Y-54423718D01*
X62603008Y-54403008D01*
X62623718Y-54389169D01*
X62636112Y-54376776D01*
X62662029Y-54363570D01*
X62690521Y-54344533D01*
X62705075Y-54341638D01*
X62710873Y-54338684D01*
X62755309Y-54331646D01*
X62793750Y-54324000D01*
X63306250Y-54324000D01*
X63344694Y-54331646D01*
G37*
G36*
X66444694Y-54331646D02*
G01*
X66489126Y-54338684D01*
X66494923Y-54341637D01*
X66509479Y-54344533D01*
X66537973Y-54363572D01*
X66563887Y-54376776D01*
X66576278Y-54389167D01*
X66596992Y-54403008D01*
X66610832Y-54423721D01*
X66623223Y-54436112D01*
X66636425Y-54462023D01*
X66655467Y-54490521D01*
X66658362Y-54505078D01*
X66661315Y-54510873D01*
X66668349Y-54555284D01*
X66676000Y-54593750D01*
X66676000Y-55031250D01*
X66668348Y-55069718D01*
X66661315Y-55114126D01*
X66658362Y-55119919D01*
X66655467Y-55134479D01*
X66636423Y-55162979D01*
X66623223Y-55188887D01*
X66610834Y-55201275D01*
X66596992Y-55221992D01*
X66576275Y-55235834D01*
X66563887Y-55248223D01*
X66537979Y-55261423D01*
X66509479Y-55280467D01*
X66494919Y-55283362D01*
X66489126Y-55286315D01*
X66444718Y-55293348D01*
X66406250Y-55301000D01*
X65893750Y-55301000D01*
X65855284Y-55293349D01*
X65810873Y-55286315D01*
X65805078Y-55283362D01*
X65790521Y-55280467D01*
X65762023Y-55261425D01*
X65736112Y-55248223D01*
X65723721Y-55235832D01*
X65703008Y-55221992D01*
X65689167Y-55201278D01*
X65676776Y-55188887D01*
X65663572Y-55162973D01*
X65644533Y-55134479D01*
X65641637Y-55119923D01*
X65638684Y-55114126D01*
X65631646Y-55069694D01*
X65624000Y-55031250D01*
X65624000Y-54593750D01*
X65631646Y-54555309D01*
X65638684Y-54510873D01*
X65641638Y-54505075D01*
X65644533Y-54490521D01*
X65663570Y-54462029D01*
X65676776Y-54436112D01*
X65689169Y-54423718D01*
X65703008Y-54403008D01*
X65723718Y-54389169D01*
X65736112Y-54376776D01*
X65762029Y-54363570D01*
X65790521Y-54344533D01*
X65805075Y-54341638D01*
X65810873Y-54338684D01*
X65855309Y-54331646D01*
X65893750Y-54324000D01*
X66406250Y-54324000D01*
X66444694Y-54331646D01*
G37*
G36*
X67994694Y-54331646D02*
G01*
X68039126Y-54338684D01*
X68044923Y-54341637D01*
X68059479Y-54344533D01*
X68087973Y-54363572D01*
X68113887Y-54376776D01*
X68126278Y-54389167D01*
X68146992Y-54403008D01*
X68160832Y-54423721D01*
X68173223Y-54436112D01*
X68186425Y-54462023D01*
X68205467Y-54490521D01*
X68208362Y-54505078D01*
X68211315Y-54510873D01*
X68218349Y-54555284D01*
X68226000Y-54593750D01*
X68226000Y-55031250D01*
X68218348Y-55069718D01*
X68211315Y-55114126D01*
X68208362Y-55119919D01*
X68205467Y-55134479D01*
X68186423Y-55162979D01*
X68173223Y-55188887D01*
X68160834Y-55201275D01*
X68146992Y-55221992D01*
X68126275Y-55235834D01*
X68113887Y-55248223D01*
X68087979Y-55261423D01*
X68059479Y-55280467D01*
X68044919Y-55283362D01*
X68039126Y-55286315D01*
X67994718Y-55293348D01*
X67956250Y-55301000D01*
X67443750Y-55301000D01*
X67405284Y-55293349D01*
X67360873Y-55286315D01*
X67355078Y-55283362D01*
X67340521Y-55280467D01*
X67312023Y-55261425D01*
X67286112Y-55248223D01*
X67273721Y-55235832D01*
X67253008Y-55221992D01*
X67239167Y-55201278D01*
X67226776Y-55188887D01*
X67213572Y-55162973D01*
X67194533Y-55134479D01*
X67191637Y-55119923D01*
X67188684Y-55114126D01*
X67181646Y-55069694D01*
X67174000Y-55031250D01*
X67174000Y-54593750D01*
X67181646Y-54555309D01*
X67188684Y-54510873D01*
X67191638Y-54505075D01*
X67194533Y-54490521D01*
X67213570Y-54462029D01*
X67226776Y-54436112D01*
X67239169Y-54423718D01*
X67253008Y-54403008D01*
X67273718Y-54389169D01*
X67286112Y-54376776D01*
X67312029Y-54363570D01*
X67340521Y-54344533D01*
X67355075Y-54341638D01*
X67360873Y-54338684D01*
X67405309Y-54331646D01*
X67443750Y-54324000D01*
X67956250Y-54324000D01*
X67994694Y-54331646D01*
G37*
G36*
X55343983Y-52763936D02*
G01*
X55394180Y-52763936D01*
X55437524Y-52773149D01*
X55475659Y-52776905D01*
X55523566Y-52791437D01*
X55578424Y-52803098D01*
X55613530Y-52818728D01*
X55644566Y-52828143D01*
X55693884Y-52854504D01*
X55750500Y-52879711D01*
X55776822Y-52898835D01*
X55800232Y-52911348D01*
X55847988Y-52950540D01*
X55902887Y-52990427D01*
X55920711Y-53010223D01*
X55936675Y-53023324D01*
X55979572Y-53075594D01*
X56028924Y-53130405D01*
X56039292Y-53148363D01*
X56048651Y-53159767D01*
X56083273Y-53224542D01*
X56123104Y-53293530D01*
X56127685Y-53307630D01*
X56131856Y-53315433D01*
X56154852Y-53391242D01*
X56181311Y-53472672D01*
X56182242Y-53481532D01*
X56183094Y-53484340D01*
X56191384Y-53568513D01*
X56201000Y-53660000D01*
X56191383Y-53751494D01*
X56183094Y-53835659D01*
X56182242Y-53838466D01*
X56181311Y-53847328D01*
X56154848Y-53928771D01*
X56131856Y-54004566D01*
X56127686Y-54012366D01*
X56123104Y-54026470D01*
X56083266Y-54095470D01*
X56048651Y-54160232D01*
X56039294Y-54171633D01*
X56028924Y-54189595D01*
X55979563Y-54244415D01*
X55936675Y-54296675D01*
X55920714Y-54309773D01*
X55902887Y-54329573D01*
X55847977Y-54369467D01*
X55800232Y-54408651D01*
X55776827Y-54421161D01*
X55750500Y-54440289D01*
X55693873Y-54465500D01*
X55644566Y-54491856D01*
X55613537Y-54501268D01*
X55578424Y-54516902D01*
X55523555Y-54528564D01*
X55475659Y-54543094D01*
X55437532Y-54546849D01*
X55394180Y-54556064D01*
X55343973Y-54556064D01*
X55300000Y-54560395D01*
X55256027Y-54556064D01*
X55205820Y-54556064D01*
X55162467Y-54546849D01*
X55124340Y-54543094D01*
X55076441Y-54528563D01*
X55021576Y-54516902D01*
X54986464Y-54501269D01*
X54955433Y-54491856D01*
X54906120Y-54465498D01*
X54849500Y-54440289D01*
X54823175Y-54421163D01*
X54799767Y-54408651D01*
X54752013Y-54369460D01*
X54697113Y-54329573D01*
X54679287Y-54309776D01*
X54663324Y-54296675D01*
X54620425Y-54244402D01*
X54571076Y-54189595D01*
X54560708Y-54171637D01*
X54551348Y-54160232D01*
X54516719Y-54095447D01*
X54476896Y-54026470D01*
X54472315Y-54012371D01*
X54468143Y-54004566D01*
X54445136Y-53928725D01*
X54418689Y-53847328D01*
X54417758Y-53838471D01*
X54416905Y-53835659D01*
X54408600Y-53751342D01*
X54399000Y-53660000D01*
X54408599Y-53568664D01*
X54416905Y-53484340D01*
X54417758Y-53481527D01*
X54418689Y-53472672D01*
X54445132Y-53391288D01*
X54468143Y-53315433D01*
X54472315Y-53307626D01*
X54476896Y-53293530D01*
X54516712Y-53224565D01*
X54551348Y-53159767D01*
X54560710Y-53148359D01*
X54571076Y-53130405D01*
X54620416Y-53075607D01*
X54663324Y-53023324D01*
X54679291Y-53010219D01*
X54697113Y-52990427D01*
X54752002Y-52950546D01*
X54799767Y-52911348D01*
X54823180Y-52898833D01*
X54849500Y-52879711D01*
X54906109Y-52854506D01*
X54955433Y-52828143D01*
X54986471Y-52818727D01*
X55021576Y-52803098D01*
X55076430Y-52791438D01*
X55124340Y-52776905D01*
X55162476Y-52773148D01*
X55205820Y-52763936D01*
X55256016Y-52763936D01*
X55300000Y-52759604D01*
X55343983Y-52763936D01*
G37*
G36*
X60219694Y-52781646D02*
G01*
X60264126Y-52788684D01*
X60269923Y-52791637D01*
X60284479Y-52794533D01*
X60312973Y-52813572D01*
X60338887Y-52826776D01*
X60351278Y-52839167D01*
X60371992Y-52853008D01*
X60385832Y-52873721D01*
X60398223Y-52886112D01*
X60411425Y-52912023D01*
X60430467Y-52940521D01*
X60433362Y-52955078D01*
X60436315Y-52960873D01*
X60443349Y-53005284D01*
X60451000Y-53043750D01*
X60451000Y-53556250D01*
X60443348Y-53594718D01*
X60436315Y-53639126D01*
X60433362Y-53644919D01*
X60430467Y-53659479D01*
X60411423Y-53687979D01*
X60398223Y-53713887D01*
X60385834Y-53726275D01*
X60371992Y-53746992D01*
X60351275Y-53760834D01*
X60338887Y-53773223D01*
X60312979Y-53786423D01*
X60284479Y-53805467D01*
X60269919Y-53808362D01*
X60264126Y-53811315D01*
X60219718Y-53818348D01*
X60181250Y-53826000D01*
X59743750Y-53826000D01*
X59705284Y-53818349D01*
X59660873Y-53811315D01*
X59655078Y-53808362D01*
X59640521Y-53805467D01*
X59612023Y-53786425D01*
X59586112Y-53773223D01*
X59573721Y-53760832D01*
X59553008Y-53746992D01*
X59539167Y-53726278D01*
X59526776Y-53713887D01*
X59513572Y-53687973D01*
X59494533Y-53659479D01*
X59491637Y-53644923D01*
X59488684Y-53639126D01*
X59481646Y-53594694D01*
X59474000Y-53556250D01*
X59474000Y-53043750D01*
X59481646Y-53005309D01*
X59488684Y-52960873D01*
X59491638Y-52955075D01*
X59494533Y-52940521D01*
X59513570Y-52912029D01*
X59526776Y-52886112D01*
X59539169Y-52873718D01*
X59553008Y-52853008D01*
X59573718Y-52839169D01*
X59586112Y-52826776D01*
X59612029Y-52813570D01*
X59640521Y-52794533D01*
X59655075Y-52791638D01*
X59660873Y-52788684D01*
X59705309Y-52781646D01*
X59743750Y-52774000D01*
X60181250Y-52774000D01*
X60219694Y-52781646D01*
G37*
G36*
X61794694Y-52781646D02*
G01*
X61839126Y-52788684D01*
X61844923Y-52791637D01*
X61859479Y-52794533D01*
X61887973Y-52813572D01*
X61913887Y-52826776D01*
X61926278Y-52839167D01*
X61946992Y-52853008D01*
X61960832Y-52873721D01*
X61973223Y-52886112D01*
X61986425Y-52912023D01*
X62005467Y-52940521D01*
X62008362Y-52955078D01*
X62011315Y-52960873D01*
X62018349Y-53005284D01*
X62026000Y-53043750D01*
X62026000Y-53556250D01*
X62018348Y-53594718D01*
X62011315Y-53639126D01*
X62008362Y-53644919D01*
X62005467Y-53659479D01*
X61986423Y-53687979D01*
X61973223Y-53713887D01*
X61960834Y-53726275D01*
X61946992Y-53746992D01*
X61926275Y-53760834D01*
X61913887Y-53773223D01*
X61887979Y-53786423D01*
X61859479Y-53805467D01*
X61844919Y-53808362D01*
X61839126Y-53811315D01*
X61794718Y-53818348D01*
X61756250Y-53826000D01*
X61318750Y-53826000D01*
X61280284Y-53818349D01*
X61235873Y-53811315D01*
X61230078Y-53808362D01*
X61215521Y-53805467D01*
X61187023Y-53786425D01*
X61161112Y-53773223D01*
X61148721Y-53760832D01*
X61128008Y-53746992D01*
X61114167Y-53726278D01*
X61101776Y-53713887D01*
X61088572Y-53687973D01*
X61069533Y-53659479D01*
X61066637Y-53644923D01*
X61063684Y-53639126D01*
X61056646Y-53594694D01*
X61049000Y-53556250D01*
X61049000Y-53043750D01*
X61056646Y-53005309D01*
X61063684Y-52960873D01*
X61066638Y-52955075D01*
X61069533Y-52940521D01*
X61088570Y-52912029D01*
X61101776Y-52886112D01*
X61114169Y-52873718D01*
X61128008Y-52853008D01*
X61148718Y-52839169D01*
X61161112Y-52826776D01*
X61187029Y-52813570D01*
X61215521Y-52794533D01*
X61230075Y-52791638D01*
X61235873Y-52788684D01*
X61280309Y-52781646D01*
X61318750Y-52774000D01*
X61756250Y-52774000D01*
X61794694Y-52781646D01*
G37*
G36*
X161842558Y-51157097D02*
G01*
X161964066Y-51167166D01*
X161967458Y-51168025D01*
X161975916Y-51168765D01*
X162071185Y-51194292D01*
X162172295Y-51219897D01*
X162181011Y-51223720D01*
X162194968Y-51227460D01*
X162281065Y-51267607D01*
X162369004Y-51306181D01*
X162382013Y-51314680D01*
X162400500Y-51323301D01*
X162474262Y-51374949D01*
X162548825Y-51423664D01*
X162564685Y-51438264D01*
X162586267Y-51453376D01*
X162646135Y-51513244D01*
X162706863Y-51569148D01*
X162723800Y-51590909D01*
X162746624Y-51613733D01*
X162791968Y-51678491D01*
X162838796Y-51738656D01*
X162854790Y-51768211D01*
X162876699Y-51799500D01*
X162907691Y-51865963D01*
X162941029Y-51927566D01*
X162953900Y-51965058D01*
X162972540Y-52005032D01*
X162990026Y-52070291D01*
X163010774Y-52130728D01*
X163018291Y-52175779D01*
X163031235Y-52224084D01*
X163036616Y-52285590D01*
X163046129Y-52342598D01*
X163046129Y-52394323D01*
X163051000Y-52450000D01*
X163046129Y-52505676D01*
X163046129Y-52557401D01*
X163036616Y-52614407D01*
X163031235Y-52675916D01*
X163018291Y-52724222D01*
X163010774Y-52769271D01*
X162990027Y-52829704D01*
X162972540Y-52894968D01*
X162953898Y-52934944D01*
X162941029Y-52972433D01*
X162907694Y-53034029D01*
X162876699Y-53100500D01*
X162854788Y-53131791D01*
X162838796Y-53161343D01*
X162791975Y-53221498D01*
X162746624Y-53286267D01*
X162723797Y-53309093D01*
X162706863Y-53330851D01*
X162646147Y-53386743D01*
X162586267Y-53446624D01*
X162564680Y-53461738D01*
X162548825Y-53476335D01*
X162474283Y-53525035D01*
X162400500Y-53576699D01*
X162382008Y-53585321D01*
X162369004Y-53593818D01*
X162281101Y-53632375D01*
X162194968Y-53672540D01*
X162181005Y-53676281D01*
X162172295Y-53680102D01*
X162071253Y-53705689D01*
X161975916Y-53731235D01*
X161967452Y-53731975D01*
X161964066Y-53732833D01*
X161842655Y-53742893D01*
X161750000Y-53751000D01*
X161744831Y-53751000D01*
X159755169Y-53751000D01*
X159750000Y-53751000D01*
X159657352Y-53742894D01*
X159535933Y-53732833D01*
X159532546Y-53731975D01*
X159524084Y-53731235D01*
X159428763Y-53705693D01*
X159327704Y-53680102D01*
X159318991Y-53676280D01*
X159305032Y-53672540D01*
X159218914Y-53632382D01*
X159130995Y-53593818D01*
X159117987Y-53585320D01*
X159099500Y-53576699D01*
X159025730Y-53525045D01*
X158951174Y-53476335D01*
X158935315Y-53461735D01*
X158913733Y-53446624D01*
X158853863Y-53386754D01*
X158793136Y-53330851D01*
X158776198Y-53309089D01*
X158753376Y-53286267D01*
X158708033Y-53221511D01*
X158661203Y-53161343D01*
X158645207Y-53131785D01*
X158623301Y-53100500D01*
X158592311Y-53034042D01*
X158558970Y-52972433D01*
X158546097Y-52934936D01*
X158527460Y-52894968D01*
X158509976Y-52829717D01*
X158489225Y-52769271D01*
X158481706Y-52724214D01*
X158468765Y-52675916D01*
X158463384Y-52614410D01*
X158453871Y-52557401D01*
X158453871Y-52505676D01*
X158449000Y-52450000D01*
X158453871Y-52394323D01*
X158453871Y-52342598D01*
X158463384Y-52285587D01*
X158468765Y-52224084D01*
X158481706Y-52175787D01*
X158489225Y-52130728D01*
X158509977Y-52070278D01*
X158527460Y-52005032D01*
X158546096Y-51965066D01*
X158558970Y-51927566D01*
X158592314Y-51865950D01*
X158623301Y-51799500D01*
X158645204Y-51768217D01*
X158661203Y-51738656D01*
X158708040Y-51678478D01*
X158753376Y-51613733D01*
X158776194Y-51590914D01*
X158793136Y-51569148D01*
X158853876Y-51513232D01*
X158913733Y-51453376D01*
X158935310Y-51438267D01*
X158951174Y-51423664D01*
X159025751Y-51374939D01*
X159099500Y-51323301D01*
X159117982Y-51314682D01*
X159130995Y-51306181D01*
X159218950Y-51267600D01*
X159305032Y-51227460D01*
X159318986Y-51223720D01*
X159327704Y-51219897D01*
X159428831Y-51194287D01*
X159524084Y-51168765D01*
X159532540Y-51168025D01*
X159535933Y-51167166D01*
X159657449Y-51157097D01*
X159750000Y-51149000D01*
X161750000Y-51149000D01*
X161842558Y-51157097D01*
G37*
G36*
X47626676Y-52053591D02*
G01*
X47664184Y-52053591D01*
X47694670Y-52062542D01*
X47716451Y-52065410D01*
X47745706Y-52077527D01*
X47787352Y-52089756D01*
X47809334Y-52103883D01*
X47852952Y-52121950D01*
X47861625Y-52108203D01*
X47942355Y-52213414D01*
X47979405Y-52256171D01*
X47985639Y-52269822D01*
X47989643Y-52275040D01*
X48005451Y-52313205D01*
X48032731Y-52372939D01*
X48034079Y-52382319D01*
X48034589Y-52383549D01*
X48038198Y-52410962D01*
X48051000Y-52500000D01*
X48038196Y-52589050D01*
X48034589Y-52616450D01*
X48034079Y-52617678D01*
X48032731Y-52627061D01*
X48005452Y-52686791D01*
X47989643Y-52724961D01*
X47985638Y-52730180D01*
X47979405Y-52743829D01*
X47942356Y-52786584D01*
X47918142Y-52818142D01*
X47908803Y-52825308D01*
X47895342Y-52840843D01*
X47853586Y-52867677D01*
X47824961Y-52889643D01*
X47809339Y-52896113D01*
X47787352Y-52910244D01*
X47745695Y-52922475D01*
X47716450Y-52934589D01*
X47694677Y-52937455D01*
X47664184Y-52946409D01*
X47626668Y-52946409D01*
X47599999Y-52949920D01*
X47573330Y-52946409D01*
X47535816Y-52946409D01*
X47505323Y-52937455D01*
X47483549Y-52934589D01*
X47454301Y-52922474D01*
X47412648Y-52910244D01*
X47390662Y-52896114D01*
X47375038Y-52889643D01*
X47346407Y-52867673D01*
X47304658Y-52840843D01*
X47291198Y-52825310D01*
X47281857Y-52818142D01*
X47257634Y-52786574D01*
X47220595Y-52743829D01*
X47214363Y-52730183D01*
X47210356Y-52724961D01*
X47194536Y-52686768D01*
X47167269Y-52627061D01*
X47165920Y-52617682D01*
X47165410Y-52616450D01*
X47161791Y-52588965D01*
X47149000Y-52500000D01*
X47161790Y-52411042D01*
X47165410Y-52383549D01*
X47165920Y-52382315D01*
X47167269Y-52372939D01*
X47194537Y-52313228D01*
X47210356Y-52275040D01*
X47214362Y-52269818D01*
X47220595Y-52256171D01*
X47257632Y-52213427D01*
X47281857Y-52181857D01*
X47291201Y-52174687D01*
X47304658Y-52159157D01*
X47346407Y-52132326D01*
X47375040Y-52110356D01*
X47390663Y-52103884D01*
X47412648Y-52089756D01*
X47454294Y-52077527D01*
X47483549Y-52065410D01*
X47505329Y-52062542D01*
X47535816Y-52053591D01*
X47573324Y-52053591D01*
X47600000Y-52050079D01*
X47626676Y-52053591D01*
G37*
G36*
X49015891Y-50509241D02*
G01*
X49086195Y-50516630D01*
X49088703Y-50517445D01*
X49097676Y-50518456D01*
X49173880Y-50545120D01*
X49240349Y-50566718D01*
X49247652Y-50570934D01*
X49261694Y-50575848D01*
X49324302Y-50615187D01*
X49380715Y-50647757D01*
X49391290Y-50657279D01*
X49408828Y-50668299D01*
X49456741Y-50716212D01*
X49501167Y-50756214D01*
X49512921Y-50772392D01*
X49531701Y-50791172D01*
X49564562Y-50843470D01*
X49596440Y-50887346D01*
X49606915Y-50910873D01*
X49624152Y-50938306D01*
X49642592Y-50991007D01*
X49662363Y-51035412D01*
X49668912Y-51066225D01*
X49681544Y-51102324D01*
X49687136Y-51151961D01*
X49696064Y-51193960D01*
X49696064Y-51231191D01*
X49701000Y-51275000D01*
X49696064Y-51318808D01*
X49696064Y-51356039D01*
X49687137Y-51398035D01*
X49681544Y-51447676D01*
X49668912Y-51483775D01*
X49662363Y-51514587D01*
X49642594Y-51558987D01*
X49624152Y-51611694D01*
X49606913Y-51639128D01*
X49596439Y-51662655D01*
X49564564Y-51706526D01*
X49531701Y-51758828D01*
X49512919Y-51777609D01*
X49501168Y-51793784D01*
X49456752Y-51833776D01*
X49408828Y-51881701D01*
X49391286Y-51892722D01*
X49380715Y-51902242D01*
X49324322Y-51934799D01*
X49261694Y-51974152D01*
X49247648Y-51979066D01*
X49240349Y-51983281D01*
X49173920Y-52004865D01*
X49097676Y-52031544D01*
X49088698Y-52032555D01*
X49086195Y-52033369D01*
X49015968Y-52040750D01*
X48925000Y-52051000D01*
X48918451Y-52051000D01*
X48381549Y-52051000D01*
X48375000Y-52051000D01*
X48284039Y-52040751D01*
X48213804Y-52033369D01*
X48211299Y-52032555D01*
X48202324Y-52031544D01*
X48126104Y-52004873D01*
X47963458Y-51952027D01*
X47932746Y-51995482D01*
X47965386Y-51943752D01*
X47908712Y-51892722D01*
X47891172Y-51881701D01*
X47843254Y-51833783D01*
X47798832Y-51793785D01*
X47787077Y-51777606D01*
X47768299Y-51758828D01*
X47735439Y-51706532D01*
X47703559Y-51662653D01*
X47693082Y-51639122D01*
X47675848Y-51611694D01*
X47657409Y-51558998D01*
X47637636Y-51514587D01*
X47631085Y-51483769D01*
X47618456Y-51447676D01*
X47612863Y-51398038D01*
X47603936Y-51356039D01*
X47603936Y-51318808D01*
X47599000Y-51275000D01*
X47603936Y-51231191D01*
X47603936Y-51193960D01*
X47612863Y-51151959D01*
X47618456Y-51102324D01*
X47631085Y-51066231D01*
X47637636Y-51035412D01*
X47657410Y-50990997D01*
X47675848Y-50938306D01*
X47693081Y-50910879D01*
X47703560Y-50887344D01*
X47735446Y-50843455D01*
X47768299Y-50791172D01*
X47787074Y-50772396D01*
X47798831Y-50756215D01*
X47843266Y-50716204D01*
X47891172Y-50668299D01*
X47908706Y-50657281D01*
X47919284Y-50647757D01*
X47975708Y-50615180D01*
X48038306Y-50575848D01*
X48052344Y-50570935D01*
X48059650Y-50566718D01*
X48126132Y-50545116D01*
X48202324Y-50518456D01*
X48211295Y-50517445D01*
X48213804Y-50516630D01*
X48284116Y-50509240D01*
X48375000Y-50499000D01*
X48925000Y-50499000D01*
X49015891Y-50509241D01*
G37*
G36*
X66019694Y-50731646D02*
G01*
X66064126Y-50738684D01*
X66069923Y-50741637D01*
X66084479Y-50744533D01*
X66112973Y-50763572D01*
X66138887Y-50776776D01*
X66151278Y-50789167D01*
X66171992Y-50803008D01*
X66185832Y-50823721D01*
X66198223Y-50836112D01*
X66211425Y-50862023D01*
X66230467Y-50890521D01*
X66233362Y-50905078D01*
X66236315Y-50910873D01*
X66243349Y-50955284D01*
X66251000Y-50993750D01*
X66251000Y-51506250D01*
X66243348Y-51544718D01*
X66236315Y-51589126D01*
X66233362Y-51594919D01*
X66230467Y-51609479D01*
X66211423Y-51637979D01*
X66198223Y-51663887D01*
X66185834Y-51676275D01*
X66171992Y-51696992D01*
X66151275Y-51710834D01*
X66138887Y-51723223D01*
X66112979Y-51736423D01*
X66084479Y-51755467D01*
X66069919Y-51758362D01*
X66064126Y-51761315D01*
X66019718Y-51768348D01*
X65981250Y-51776000D01*
X65543750Y-51776000D01*
X65505284Y-51768349D01*
X65460873Y-51761315D01*
X65455078Y-51758362D01*
X65440521Y-51755467D01*
X65412023Y-51736425D01*
X65386112Y-51723223D01*
X65373721Y-51710832D01*
X65353008Y-51696992D01*
X65339167Y-51676278D01*
X65326776Y-51663887D01*
X65313572Y-51637973D01*
X65294533Y-51609479D01*
X65291637Y-51594923D01*
X65288684Y-51589126D01*
X65281646Y-51544694D01*
X65274000Y-51506250D01*
X65274000Y-50993750D01*
X65281646Y-50955309D01*
X65288684Y-50910873D01*
X65291638Y-50905075D01*
X65294533Y-50890521D01*
X65313570Y-50862029D01*
X65326776Y-50836112D01*
X65339169Y-50823718D01*
X65353008Y-50803008D01*
X65373718Y-50789169D01*
X65386112Y-50776776D01*
X65412029Y-50763570D01*
X65440521Y-50744533D01*
X65455075Y-50741638D01*
X65460873Y-50738684D01*
X65505309Y-50731646D01*
X65543750Y-50724000D01*
X65981250Y-50724000D01*
X66019694Y-50731646D01*
G37*
G36*
X67594694Y-50731646D02*
G01*
X67639126Y-50738684D01*
X67644923Y-50741637D01*
X67659479Y-50744533D01*
X67687973Y-50763572D01*
X67713887Y-50776776D01*
X67726278Y-50789167D01*
X67746992Y-50803008D01*
X67760832Y-50823721D01*
X67773223Y-50836112D01*
X67786425Y-50862023D01*
X67805467Y-50890521D01*
X67808362Y-50905078D01*
X67811315Y-50910873D01*
X67818349Y-50955284D01*
X67826000Y-50993750D01*
X67826000Y-51506250D01*
X67818348Y-51544718D01*
X67811315Y-51589126D01*
X67808362Y-51594919D01*
X67805467Y-51609479D01*
X67786423Y-51637979D01*
X67773223Y-51663887D01*
X67760834Y-51676275D01*
X67746992Y-51696992D01*
X67726275Y-51710834D01*
X67713887Y-51723223D01*
X67687979Y-51736423D01*
X67659479Y-51755467D01*
X67644919Y-51758362D01*
X67639126Y-51761315D01*
X67594718Y-51768348D01*
X67556250Y-51776000D01*
X67118750Y-51776000D01*
X67080284Y-51768349D01*
X67035873Y-51761315D01*
X67030078Y-51758362D01*
X67015521Y-51755467D01*
X66987023Y-51736425D01*
X66961112Y-51723223D01*
X66948721Y-51710832D01*
X66928008Y-51696992D01*
X66914167Y-51676278D01*
X66901776Y-51663887D01*
X66888572Y-51637973D01*
X66869533Y-51609479D01*
X66866637Y-51594923D01*
X66863684Y-51589126D01*
X66856646Y-51544694D01*
X66849000Y-51506250D01*
X66849000Y-50993750D01*
X66856646Y-50955309D01*
X66863684Y-50910873D01*
X66866638Y-50905075D01*
X66869533Y-50890521D01*
X66888570Y-50862029D01*
X66901776Y-50836112D01*
X66914169Y-50823718D01*
X66928008Y-50803008D01*
X66948718Y-50789169D01*
X66961112Y-50776776D01*
X66987029Y-50763570D01*
X67015521Y-50744533D01*
X67030075Y-50741638D01*
X67035873Y-50738684D01*
X67080309Y-50731646D01*
X67118750Y-50724000D01*
X67556250Y-50724000D01*
X67594694Y-50731646D01*
G37*
G36*
X45220461Y-50501860D02*
G01*
X45244000Y-50503231D01*
X45244631Y-50503380D01*
X45253459Y-50503936D01*
X45331247Y-50523908D01*
X45388817Y-50537553D01*
X45393450Y-50539880D01*
X45405446Y-50542960D01*
X45467382Y-50577009D01*
X45518523Y-50602693D01*
X45526924Y-50609742D01*
X45542954Y-50618555D01*
X45589352Y-50662126D01*
X45629716Y-50695996D01*
X45639699Y-50709406D01*
X45657341Y-50725973D01*
X45688010Y-50774300D01*
X45716394Y-50812426D01*
X45725281Y-50833028D01*
X45741422Y-50858462D01*
X45757201Y-50907027D01*
X45773886Y-50945705D01*
X45778771Y-50973410D01*
X45789912Y-51007699D01*
X45792738Y-51052627D01*
X45799090Y-51088649D01*
X45797126Y-51122366D01*
X45799765Y-51164307D01*
X45792450Y-51202647D01*
X45790651Y-51233555D01*
X45779361Y-51271263D01*
X45770361Y-51318445D01*
X45756272Y-51348384D01*
X45749020Y-51372609D01*
X45726599Y-51411443D01*
X45703549Y-51460428D01*
X45686236Y-51481354D01*
X45676446Y-51498313D01*
X45642025Y-51534796D01*
X45603526Y-51581334D01*
X45586336Y-51593822D01*
X45576836Y-51603893D01*
X45530825Y-51634154D01*
X45476578Y-51673568D01*
X45462312Y-51679216D01*
X45455568Y-51683652D01*
X45400314Y-51703762D01*
X45330680Y-51731333D01*
X45321316Y-51732515D01*
X45319168Y-51733298D01*
X45265100Y-51739617D01*
X45175000Y-51751000D01*
X45167719Y-51751000D01*
X44528645Y-51751000D01*
X44525000Y-51751000D01*
X44479401Y-51748131D01*
X44455999Y-51746768D01*
X44455373Y-51746619D01*
X44446541Y-51746064D01*
X44368713Y-51726081D01*
X44311182Y-51712446D01*
X44306551Y-51710120D01*
X44294554Y-51707040D01*
X44232606Y-51672984D01*
X44181476Y-51647306D01*
X44173076Y-51640257D01*
X44157046Y-51631445D01*
X44110646Y-51587872D01*
X44070283Y-51554003D01*
X44060299Y-51540592D01*
X44042659Y-51524027D01*
X44011990Y-51475701D01*
X43983605Y-51437573D01*
X43974717Y-51416968D01*
X43958578Y-51391538D01*
X43942799Y-51342977D01*
X43926113Y-51304294D01*
X43921227Y-51276583D01*
X43910088Y-51242301D01*
X43907261Y-51197379D01*
X43900909Y-51161350D01*
X43902873Y-51127624D01*
X43900235Y-51085693D01*
X43907547Y-51047360D01*
X43909348Y-51016444D01*
X43920640Y-50978724D01*
X43929639Y-50931555D01*
X43943724Y-50901622D01*
X43950979Y-50877390D01*
X43973407Y-50838542D01*
X43996451Y-50789572D01*
X44013758Y-50768651D01*
X44023553Y-50751686D01*
X44057988Y-50715187D01*
X44096474Y-50668666D01*
X44113657Y-50656181D01*
X44123163Y-50646106D01*
X44169198Y-50615828D01*
X44223422Y-50576432D01*
X44237681Y-50570786D01*
X44244431Y-50566347D01*
X44299728Y-50546220D01*
X44369320Y-50518667D01*
X44378677Y-50517484D01*
X44380831Y-50516701D01*
X44434975Y-50510372D01*
X44525000Y-50499000D01*
X45175000Y-50499000D01*
X45220461Y-50501860D01*
G37*
G36*
X77430596Y-49567159D02*
G01*
X77447141Y-49578215D01*
X77458197Y-49594760D01*
X77462079Y-49614277D01*
X77462079Y-51614277D01*
X77458197Y-51633794D01*
X77447141Y-51650339D01*
X77430596Y-51661395D01*
X77411079Y-51665277D01*
X73611079Y-51665277D01*
X73591562Y-51661395D01*
X73575017Y-51650339D01*
X73563961Y-51633794D01*
X73560079Y-51614277D01*
X73560079Y-49614277D01*
X73563961Y-49594760D01*
X73575017Y-49578215D01*
X73591562Y-49567159D01*
X73611079Y-49563277D01*
X77411079Y-49563277D01*
X77430596Y-49567159D01*
G37*
G36*
X59944694Y-50656646D02*
G01*
X59989126Y-50663684D01*
X59994923Y-50666637D01*
X60009479Y-50669533D01*
X60037973Y-50688572D01*
X60063887Y-50701776D01*
X60076278Y-50714167D01*
X60096992Y-50728008D01*
X60110832Y-50748721D01*
X60123223Y-50761112D01*
X60136425Y-50787023D01*
X60155467Y-50815521D01*
X60158362Y-50830078D01*
X60161315Y-50835873D01*
X60168349Y-50880284D01*
X60176000Y-50918750D01*
X60176000Y-51356250D01*
X60168348Y-51394718D01*
X60161315Y-51439126D01*
X60158362Y-51444919D01*
X60155467Y-51459479D01*
X60136423Y-51487979D01*
X60123223Y-51513887D01*
X60110834Y-51526275D01*
X60096992Y-51546992D01*
X60076275Y-51560834D01*
X60063887Y-51573223D01*
X60037979Y-51586423D01*
X60009479Y-51605467D01*
X59994919Y-51608362D01*
X59989126Y-51611315D01*
X59944718Y-51618348D01*
X59906250Y-51626000D01*
X59393750Y-51626000D01*
X59355284Y-51618349D01*
X59310873Y-51611315D01*
X59305078Y-51608362D01*
X59290521Y-51605467D01*
X59262023Y-51586425D01*
X59236112Y-51573223D01*
X59223721Y-51560832D01*
X59203008Y-51546992D01*
X59189167Y-51526278D01*
X59176776Y-51513887D01*
X59163572Y-51487973D01*
X59144533Y-51459479D01*
X59141637Y-51444923D01*
X59138684Y-51439126D01*
X59131646Y-51394694D01*
X59124000Y-51356250D01*
X59124000Y-50918750D01*
X59131646Y-50880309D01*
X59138684Y-50835873D01*
X59141638Y-50830075D01*
X59144533Y-50815521D01*
X59163570Y-50787029D01*
X59176776Y-50761112D01*
X59189169Y-50748718D01*
X59203008Y-50728008D01*
X59223718Y-50714169D01*
X59236112Y-50701776D01*
X59262029Y-50688570D01*
X59290521Y-50669533D01*
X59305075Y-50666638D01*
X59310873Y-50663684D01*
X59355309Y-50656646D01*
X59393750Y-50649000D01*
X59906250Y-50649000D01*
X59944694Y-50656646D01*
G37*
G36*
X61494694Y-50656646D02*
G01*
X61539126Y-50663684D01*
X61544923Y-50666637D01*
X61559479Y-50669533D01*
X61587973Y-50688572D01*
X61613887Y-50701776D01*
X61626278Y-50714167D01*
X61646992Y-50728008D01*
X61660832Y-50748721D01*
X61673223Y-50761112D01*
X61686425Y-50787023D01*
X61705467Y-50815521D01*
X61708362Y-50830078D01*
X61711315Y-50835873D01*
X61718349Y-50880284D01*
X61726000Y-50918750D01*
X61726000Y-51356250D01*
X61718348Y-51394718D01*
X61711315Y-51439126D01*
X61708362Y-51444919D01*
X61705467Y-51459479D01*
X61686423Y-51487979D01*
X61673223Y-51513887D01*
X61660834Y-51526275D01*
X61646992Y-51546992D01*
X61626275Y-51560834D01*
X61613887Y-51573223D01*
X61587979Y-51586423D01*
X61559479Y-51605467D01*
X61544919Y-51608362D01*
X61539126Y-51611315D01*
X61494718Y-51618348D01*
X61456250Y-51626000D01*
X60943750Y-51626000D01*
X60905284Y-51618349D01*
X60860873Y-51611315D01*
X60855078Y-51608362D01*
X60840521Y-51605467D01*
X60812023Y-51586425D01*
X60786112Y-51573223D01*
X60773721Y-51560832D01*
X60753008Y-51546992D01*
X60739167Y-51526278D01*
X60726776Y-51513887D01*
X60713572Y-51487973D01*
X60694533Y-51459479D01*
X60691637Y-51444923D01*
X60688684Y-51439126D01*
X60681646Y-51394694D01*
X60674000Y-51356250D01*
X60674000Y-50918750D01*
X60681646Y-50880309D01*
X60688684Y-50835873D01*
X60691638Y-50830075D01*
X60694533Y-50815521D01*
X60713570Y-50787029D01*
X60726776Y-50761112D01*
X60739169Y-50748718D01*
X60753008Y-50728008D01*
X60773718Y-50714169D01*
X60786112Y-50701776D01*
X60812029Y-50688570D01*
X60840521Y-50669533D01*
X60855075Y-50666638D01*
X60860873Y-50663684D01*
X60905309Y-50656646D01*
X60943750Y-50649000D01*
X61456250Y-50649000D01*
X61494694Y-50656646D01*
G37*
G36*
X168526676Y-49993591D02*
G01*
X168564184Y-49993591D01*
X168594671Y-50002542D01*
X168616450Y-50005410D01*
X168645703Y-50017527D01*
X168687352Y-50029756D01*
X168709334Y-50043883D01*
X168724961Y-50050356D01*
X168753595Y-50072327D01*
X168795342Y-50099157D01*
X168808799Y-50114688D01*
X168818141Y-50121856D01*
X168842357Y-50153416D01*
X168879405Y-50196171D01*
X168885639Y-50209822D01*
X168889643Y-50215040D01*
X168905451Y-50253205D01*
X168932731Y-50312939D01*
X168934079Y-50322319D01*
X168934589Y-50323549D01*
X168938197Y-50350960D01*
X168951000Y-50440000D01*
X168938196Y-50529048D01*
X168934589Y-50556450D01*
X168934079Y-50557678D01*
X168932731Y-50567061D01*
X168905452Y-50626791D01*
X168889643Y-50664961D01*
X168885638Y-50670180D01*
X168879405Y-50683829D01*
X168842356Y-50726584D01*
X168818142Y-50758142D01*
X168808803Y-50765308D01*
X168795342Y-50780843D01*
X168753586Y-50807677D01*
X168724961Y-50829643D01*
X168709339Y-50836113D01*
X168687352Y-50850244D01*
X168645695Y-50862475D01*
X168616450Y-50874589D01*
X168594677Y-50877455D01*
X168564184Y-50886409D01*
X168526668Y-50886409D01*
X168499999Y-50889920D01*
X168473330Y-50886409D01*
X168435816Y-50886409D01*
X168405323Y-50877455D01*
X168383549Y-50874589D01*
X168354301Y-50862474D01*
X168312648Y-50850244D01*
X168290662Y-50836114D01*
X168275038Y-50829643D01*
X168246407Y-50807673D01*
X168204658Y-50780843D01*
X168191198Y-50765310D01*
X168181857Y-50758142D01*
X168157634Y-50726574D01*
X168120595Y-50683829D01*
X168114363Y-50670183D01*
X168110356Y-50664961D01*
X168094536Y-50626768D01*
X168067269Y-50567061D01*
X168065920Y-50557682D01*
X168065410Y-50556450D01*
X168061791Y-50528965D01*
X168049000Y-50440000D01*
X168061790Y-50351042D01*
X168065410Y-50323549D01*
X168065920Y-50322315D01*
X168067269Y-50312939D01*
X168094537Y-50253228D01*
X168110356Y-50215040D01*
X168114362Y-50209818D01*
X168120595Y-50196171D01*
X168157632Y-50153427D01*
X168181857Y-50121857D01*
X168191201Y-50114687D01*
X168204658Y-50099157D01*
X168246407Y-50072326D01*
X168275040Y-50050356D01*
X168290663Y-50043884D01*
X168312648Y-50029756D01*
X168354294Y-50017527D01*
X168383549Y-50005410D01*
X168405329Y-50002542D01*
X168435816Y-49993591D01*
X168473324Y-49993591D01*
X168500000Y-49990079D01*
X168526676Y-49993591D01*
G37*
G36*
X66019694Y-49181646D02*
G01*
X66064126Y-49188684D01*
X66069923Y-49191637D01*
X66084479Y-49194533D01*
X66112973Y-49213572D01*
X66138887Y-49226776D01*
X66151278Y-49239167D01*
X66171992Y-49253008D01*
X66185832Y-49273721D01*
X66198223Y-49286112D01*
X66211425Y-49312023D01*
X66230467Y-49340521D01*
X66233362Y-49355078D01*
X66236315Y-49360873D01*
X66243349Y-49405284D01*
X66251000Y-49443750D01*
X66251000Y-49956250D01*
X66243348Y-49994718D01*
X66236315Y-50039126D01*
X66233362Y-50044919D01*
X66230467Y-50059479D01*
X66211423Y-50087979D01*
X66198223Y-50113887D01*
X66185834Y-50126275D01*
X66171992Y-50146992D01*
X66151275Y-50160834D01*
X66138887Y-50173223D01*
X66112979Y-50186423D01*
X66084479Y-50205467D01*
X66069919Y-50208362D01*
X66064126Y-50211315D01*
X66019718Y-50218348D01*
X65981250Y-50226000D01*
X65543750Y-50226000D01*
X65505284Y-50218349D01*
X65460873Y-50211315D01*
X65455078Y-50208362D01*
X65440521Y-50205467D01*
X65412023Y-50186425D01*
X65386112Y-50173223D01*
X65373721Y-50160832D01*
X65353008Y-50146992D01*
X65339167Y-50126278D01*
X65326776Y-50113887D01*
X65313572Y-50087973D01*
X65294533Y-50059479D01*
X65291637Y-50044923D01*
X65288684Y-50039126D01*
X65281646Y-49994694D01*
X65274000Y-49956250D01*
X65274000Y-49443750D01*
X65281646Y-49405309D01*
X65288684Y-49360873D01*
X65291638Y-49355075D01*
X65294533Y-49340521D01*
X65313570Y-49312029D01*
X65326776Y-49286112D01*
X65339169Y-49273718D01*
X65353008Y-49253008D01*
X65373718Y-49239169D01*
X65386112Y-49226776D01*
X65412029Y-49213570D01*
X65440521Y-49194533D01*
X65455075Y-49191638D01*
X65460873Y-49188684D01*
X65505309Y-49181646D01*
X65543750Y-49174000D01*
X65981250Y-49174000D01*
X66019694Y-49181646D01*
G37*
G36*
X67594694Y-49181646D02*
G01*
X67639126Y-49188684D01*
X67644923Y-49191637D01*
X67659479Y-49194533D01*
X67687973Y-49213572D01*
X67713887Y-49226776D01*
X67726278Y-49239167D01*
X67746992Y-49253008D01*
X67760832Y-49273721D01*
X67773223Y-49286112D01*
X67786425Y-49312023D01*
X67805467Y-49340521D01*
X67808362Y-49355078D01*
X67811315Y-49360873D01*
X67818349Y-49405284D01*
X67826000Y-49443750D01*
X67826000Y-49956250D01*
X67818348Y-49994718D01*
X67811315Y-50039126D01*
X67808362Y-50044919D01*
X67805467Y-50059479D01*
X67786423Y-50087979D01*
X67773223Y-50113887D01*
X67760834Y-50126275D01*
X67746992Y-50146992D01*
X67726275Y-50160834D01*
X67713887Y-50173223D01*
X67687979Y-50186423D01*
X67659479Y-50205467D01*
X67644919Y-50208362D01*
X67639126Y-50211315D01*
X67594718Y-50218348D01*
X67556250Y-50226000D01*
X67118750Y-50226000D01*
X67080284Y-50218349D01*
X67035873Y-50211315D01*
X67030078Y-50208362D01*
X67015521Y-50205467D01*
X66987023Y-50186425D01*
X66961112Y-50173223D01*
X66948721Y-50160832D01*
X66928008Y-50146992D01*
X66914167Y-50126278D01*
X66901776Y-50113887D01*
X66888572Y-50087973D01*
X66869533Y-50059479D01*
X66866637Y-50044923D01*
X66863684Y-50039126D01*
X66856646Y-49994694D01*
X66849000Y-49956250D01*
X66849000Y-49443750D01*
X66856646Y-49405309D01*
X66863684Y-49360873D01*
X66866638Y-49355075D01*
X66869533Y-49340521D01*
X66888570Y-49312029D01*
X66901776Y-49286112D01*
X66914169Y-49273718D01*
X66928008Y-49253008D01*
X66948718Y-49239169D01*
X66961112Y-49226776D01*
X66987029Y-49213570D01*
X67015521Y-49194533D01*
X67030075Y-49191638D01*
X67035873Y-49188684D01*
X67080309Y-49181646D01*
X67118750Y-49174000D01*
X67556250Y-49174000D01*
X67594694Y-49181646D01*
G37*
G36*
X59944694Y-49081646D02*
G01*
X59989126Y-49088684D01*
X59994923Y-49091637D01*
X60009479Y-49094533D01*
X60037973Y-49113572D01*
X60063887Y-49126776D01*
X60076278Y-49139167D01*
X60096992Y-49153008D01*
X60110832Y-49173721D01*
X60123223Y-49186112D01*
X60136425Y-49212023D01*
X60155467Y-49240521D01*
X60158362Y-49255078D01*
X60161315Y-49260873D01*
X60168349Y-49305284D01*
X60176000Y-49343750D01*
X60176000Y-49781250D01*
X60168348Y-49819718D01*
X60161315Y-49864126D01*
X60158362Y-49869919D01*
X60155467Y-49884479D01*
X60136423Y-49912979D01*
X60123223Y-49938887D01*
X60110834Y-49951275D01*
X60096992Y-49971992D01*
X60076275Y-49985834D01*
X60063887Y-49998223D01*
X60037979Y-50011423D01*
X60009479Y-50030467D01*
X59994919Y-50033362D01*
X59989126Y-50036315D01*
X59944718Y-50043348D01*
X59906250Y-50051000D01*
X59393750Y-50051000D01*
X59355284Y-50043349D01*
X59310873Y-50036315D01*
X59305078Y-50033362D01*
X59290521Y-50030467D01*
X59262023Y-50011425D01*
X59236112Y-49998223D01*
X59223721Y-49985832D01*
X59203008Y-49971992D01*
X59189167Y-49951278D01*
X59176776Y-49938887D01*
X59163572Y-49912973D01*
X59144533Y-49884479D01*
X59141637Y-49869923D01*
X59138684Y-49864126D01*
X59131646Y-49819694D01*
X59124000Y-49781250D01*
X59124000Y-49343750D01*
X59131646Y-49305309D01*
X59138684Y-49260873D01*
X59141638Y-49255075D01*
X59144533Y-49240521D01*
X59163570Y-49212029D01*
X59176776Y-49186112D01*
X59189169Y-49173718D01*
X59203008Y-49153008D01*
X59223718Y-49139169D01*
X59236112Y-49126776D01*
X59262029Y-49113570D01*
X59290521Y-49094533D01*
X59305075Y-49091638D01*
X59310873Y-49088684D01*
X59355309Y-49081646D01*
X59393750Y-49074000D01*
X59906250Y-49074000D01*
X59944694Y-49081646D01*
G37*
G36*
X61494694Y-49081646D02*
G01*
X61539126Y-49088684D01*
X61544923Y-49091637D01*
X61559479Y-49094533D01*
X61587973Y-49113572D01*
X61613887Y-49126776D01*
X61626278Y-49139167D01*
X61646992Y-49153008D01*
X61660832Y-49173721D01*
X61673223Y-49186112D01*
X61686425Y-49212023D01*
X61705467Y-49240521D01*
X61708362Y-49255078D01*
X61711315Y-49260873D01*
X61718349Y-49305284D01*
X61726000Y-49343750D01*
X61726000Y-49781250D01*
X61718348Y-49819718D01*
X61711315Y-49864126D01*
X61708362Y-49869919D01*
X61705467Y-49884479D01*
X61686423Y-49912979D01*
X61673223Y-49938887D01*
X61660834Y-49951275D01*
X61646992Y-49971992D01*
X61626275Y-49985834D01*
X61613887Y-49998223D01*
X61587979Y-50011423D01*
X61559479Y-50030467D01*
X61544919Y-50033362D01*
X61539126Y-50036315D01*
X61494718Y-50043348D01*
X61456250Y-50051000D01*
X60943750Y-50051000D01*
X60905284Y-50043349D01*
X60860873Y-50036315D01*
X60855078Y-50033362D01*
X60840521Y-50030467D01*
X60812023Y-50011425D01*
X60786112Y-49998223D01*
X60773721Y-49985832D01*
X60753008Y-49971992D01*
X60739167Y-49951278D01*
X60726776Y-49938887D01*
X60713572Y-49912973D01*
X60694533Y-49884479D01*
X60691637Y-49869923D01*
X60688684Y-49864126D01*
X60681646Y-49819694D01*
X60674000Y-49781250D01*
X60674000Y-49343750D01*
X60681646Y-49305309D01*
X60688684Y-49260873D01*
X60691638Y-49255075D01*
X60694533Y-49240521D01*
X60713570Y-49212029D01*
X60726776Y-49186112D01*
X60739169Y-49173718D01*
X60753008Y-49153008D01*
X60773718Y-49139169D01*
X60786112Y-49126776D01*
X60812029Y-49113570D01*
X60840521Y-49094533D01*
X60855075Y-49091638D01*
X60860873Y-49088684D01*
X60905309Y-49081646D01*
X60943750Y-49074000D01*
X61456250Y-49074000D01*
X61494694Y-49081646D01*
G37*
G36*
X66019694Y-47631646D02*
G01*
X66064126Y-47638684D01*
X66069923Y-47641637D01*
X66084479Y-47644533D01*
X66112973Y-47663572D01*
X66138887Y-47676776D01*
X66151278Y-47689167D01*
X66171992Y-47703008D01*
X66185832Y-47723721D01*
X66198223Y-47736112D01*
X66211425Y-47762023D01*
X66230467Y-47790521D01*
X66233362Y-47805078D01*
X66236315Y-47810873D01*
X66243349Y-47855284D01*
X66251000Y-47893750D01*
X66251000Y-48406250D01*
X66243348Y-48444718D01*
X66236315Y-48489126D01*
X66233362Y-48494919D01*
X66230467Y-48509479D01*
X66211423Y-48537979D01*
X66198223Y-48563887D01*
X66185834Y-48576275D01*
X66171992Y-48596992D01*
X66151275Y-48610834D01*
X66138887Y-48623223D01*
X66112979Y-48636423D01*
X66084479Y-48655467D01*
X66069919Y-48658362D01*
X66064126Y-48661315D01*
X66019718Y-48668348D01*
X65981250Y-48676000D01*
X65543750Y-48676000D01*
X65505284Y-48668349D01*
X65460873Y-48661315D01*
X65455078Y-48658362D01*
X65440521Y-48655467D01*
X65412023Y-48636425D01*
X65386112Y-48623223D01*
X65373721Y-48610832D01*
X65353008Y-48596992D01*
X65339167Y-48576278D01*
X65326776Y-48563887D01*
X65313572Y-48537973D01*
X65294533Y-48509479D01*
X65291637Y-48494923D01*
X65288684Y-48489126D01*
X65281646Y-48444694D01*
X65274000Y-48406250D01*
X65274000Y-47893750D01*
X65281646Y-47855309D01*
X65288684Y-47810873D01*
X65291638Y-47805075D01*
X65294533Y-47790521D01*
X65313570Y-47762029D01*
X65326776Y-47736112D01*
X65339169Y-47723718D01*
X65353008Y-47703008D01*
X65373718Y-47689169D01*
X65386112Y-47676776D01*
X65412029Y-47663570D01*
X65440521Y-47644533D01*
X65455075Y-47641638D01*
X65460873Y-47638684D01*
X65505309Y-47631646D01*
X65543750Y-47624000D01*
X65981250Y-47624000D01*
X66019694Y-47631646D01*
G37*
G36*
X67594694Y-47631646D02*
G01*
X67639126Y-47638684D01*
X67644923Y-47641637D01*
X67659479Y-47644533D01*
X67687973Y-47663572D01*
X67713887Y-47676776D01*
X67726278Y-47689167D01*
X67746992Y-47703008D01*
X67760832Y-47723721D01*
X67773223Y-47736112D01*
X67786425Y-47762023D01*
X67805467Y-47790521D01*
X67808362Y-47805078D01*
X67811315Y-47810873D01*
X67818349Y-47855284D01*
X67826000Y-47893750D01*
X67826000Y-48406250D01*
X67818348Y-48444718D01*
X67811315Y-48489126D01*
X67808362Y-48494919D01*
X67805467Y-48509479D01*
X67786423Y-48537979D01*
X67773223Y-48563887D01*
X67760834Y-48576275D01*
X67746992Y-48596992D01*
X67726275Y-48610834D01*
X67713887Y-48623223D01*
X67687979Y-48636423D01*
X67659479Y-48655467D01*
X67644919Y-48658362D01*
X67639126Y-48661315D01*
X67594718Y-48668348D01*
X67556250Y-48676000D01*
X67118750Y-48676000D01*
X67080284Y-48668349D01*
X67035873Y-48661315D01*
X67030078Y-48658362D01*
X67015521Y-48655467D01*
X66987023Y-48636425D01*
X66961112Y-48623223D01*
X66948721Y-48610832D01*
X66928008Y-48596992D01*
X66914167Y-48576278D01*
X66901776Y-48563887D01*
X66888572Y-48537973D01*
X66869533Y-48509479D01*
X66866637Y-48494923D01*
X66863684Y-48489126D01*
X66856646Y-48444694D01*
X66849000Y-48406250D01*
X66849000Y-47893750D01*
X66856646Y-47855309D01*
X66863684Y-47810873D01*
X66866638Y-47805075D01*
X66869533Y-47790521D01*
X66888570Y-47762029D01*
X66901776Y-47736112D01*
X66914169Y-47723718D01*
X66928008Y-47703008D01*
X66948718Y-47689169D01*
X66961112Y-47676776D01*
X66987029Y-47663570D01*
X67015521Y-47644533D01*
X67030075Y-47641638D01*
X67035873Y-47638684D01*
X67080309Y-47631646D01*
X67118750Y-47624000D01*
X67556250Y-47624000D01*
X67594694Y-47631646D01*
G37*
G36*
X161842558Y-45707097D02*
G01*
X161964066Y-45717166D01*
X161967458Y-45718025D01*
X161975916Y-45718765D01*
X162071185Y-45744292D01*
X162172295Y-45769897D01*
X162181011Y-45773720D01*
X162194968Y-45777460D01*
X162281065Y-45817607D01*
X162369004Y-45856181D01*
X162382013Y-45864680D01*
X162400500Y-45873301D01*
X162474262Y-45924949D01*
X162548825Y-45973664D01*
X162564685Y-45988264D01*
X162586267Y-46003376D01*
X162646135Y-46063244D01*
X162706863Y-46119148D01*
X162723800Y-46140909D01*
X162746624Y-46163733D01*
X162791968Y-46228491D01*
X162838796Y-46288656D01*
X162854790Y-46318211D01*
X162876699Y-46349500D01*
X162907691Y-46415963D01*
X162941029Y-46477566D01*
X162953900Y-46515058D01*
X162972540Y-46555032D01*
X162990026Y-46620291D01*
X163010774Y-46680728D01*
X163018291Y-46725779D01*
X163031235Y-46774084D01*
X163036616Y-46835590D01*
X163046129Y-46892598D01*
X163046129Y-46944323D01*
X163051000Y-47000000D01*
X163046129Y-47055676D01*
X163046129Y-47107401D01*
X163036616Y-47164407D01*
X163031235Y-47225916D01*
X163018291Y-47274222D01*
X163010774Y-47319271D01*
X162990027Y-47379704D01*
X162972540Y-47444968D01*
X162953898Y-47484944D01*
X162941029Y-47522433D01*
X162907694Y-47584029D01*
X162876699Y-47650500D01*
X162854788Y-47681791D01*
X162838796Y-47711343D01*
X162791975Y-47771498D01*
X162746624Y-47836267D01*
X162723797Y-47859093D01*
X162706863Y-47880851D01*
X162646147Y-47936743D01*
X162586267Y-47996624D01*
X162564680Y-48011738D01*
X162548825Y-48026335D01*
X162474283Y-48075035D01*
X162400500Y-48126699D01*
X162382008Y-48135321D01*
X162369004Y-48143818D01*
X162281101Y-48182375D01*
X162194968Y-48222540D01*
X162181005Y-48226281D01*
X162172295Y-48230102D01*
X162071253Y-48255689D01*
X161975916Y-48281235D01*
X161967452Y-48281975D01*
X161964066Y-48282833D01*
X161842655Y-48292893D01*
X161750000Y-48301000D01*
X161744831Y-48301000D01*
X159755169Y-48301000D01*
X159750000Y-48301000D01*
X159657352Y-48292894D01*
X159535933Y-48282833D01*
X159532546Y-48281975D01*
X159524084Y-48281235D01*
X159428763Y-48255693D01*
X159327704Y-48230102D01*
X159318991Y-48226280D01*
X159305032Y-48222540D01*
X159218914Y-48182382D01*
X159130995Y-48143818D01*
X159117987Y-48135320D01*
X159099500Y-48126699D01*
X159025730Y-48075045D01*
X158951174Y-48026335D01*
X158935315Y-48011735D01*
X158913733Y-47996624D01*
X158853863Y-47936754D01*
X158793136Y-47880851D01*
X158776198Y-47859089D01*
X158753376Y-47836267D01*
X158708033Y-47771511D01*
X158661203Y-47711343D01*
X158645207Y-47681785D01*
X158623301Y-47650500D01*
X158592311Y-47584042D01*
X158558970Y-47522433D01*
X158546097Y-47484936D01*
X158527460Y-47444968D01*
X158509976Y-47379717D01*
X158489225Y-47319271D01*
X158481706Y-47274214D01*
X158468765Y-47225916D01*
X158463384Y-47164410D01*
X158453871Y-47107401D01*
X158453871Y-47055676D01*
X158449000Y-47000000D01*
X158453871Y-46944323D01*
X158453871Y-46892598D01*
X158463384Y-46835587D01*
X158468765Y-46774084D01*
X158481706Y-46725787D01*
X158489225Y-46680728D01*
X158509977Y-46620278D01*
X158527460Y-46555032D01*
X158546096Y-46515066D01*
X158558970Y-46477566D01*
X158592314Y-46415950D01*
X158623301Y-46349500D01*
X158645204Y-46318217D01*
X158661203Y-46288656D01*
X158708040Y-46228478D01*
X158753376Y-46163733D01*
X158776194Y-46140914D01*
X158793136Y-46119148D01*
X158853876Y-46063232D01*
X158913733Y-46003376D01*
X158935310Y-45988267D01*
X158951174Y-45973664D01*
X159025751Y-45924939D01*
X159099500Y-45873301D01*
X159117982Y-45864682D01*
X159130995Y-45856181D01*
X159218950Y-45817600D01*
X159305032Y-45777460D01*
X159318986Y-45773720D01*
X159327704Y-45769897D01*
X159428831Y-45744287D01*
X159524084Y-45718765D01*
X159532540Y-45718025D01*
X159535933Y-45717166D01*
X159657449Y-45707097D01*
X159750000Y-45699000D01*
X161750000Y-45699000D01*
X161842558Y-45707097D01*
G37*
G36*
X168526676Y-43113591D02*
G01*
X168564184Y-43113591D01*
X168594671Y-43122542D01*
X168616450Y-43125410D01*
X168645703Y-43137527D01*
X168687352Y-43149756D01*
X168709334Y-43163883D01*
X168724961Y-43170356D01*
X168753595Y-43192327D01*
X168795342Y-43219157D01*
X168808799Y-43234688D01*
X168818141Y-43241856D01*
X168842357Y-43273416D01*
X168879405Y-43316171D01*
X168885639Y-43329822D01*
X168889643Y-43335040D01*
X168905451Y-43373205D01*
X168932731Y-43432939D01*
X168934079Y-43442319D01*
X168934589Y-43443549D01*
X168938197Y-43470960D01*
X168951000Y-43560000D01*
X168938196Y-43649048D01*
X168934589Y-43676450D01*
X168934079Y-43677678D01*
X168932731Y-43687061D01*
X168905452Y-43746791D01*
X168889643Y-43784961D01*
X168885638Y-43790180D01*
X168879405Y-43803829D01*
X168842356Y-43846584D01*
X168818142Y-43878142D01*
X168808803Y-43885308D01*
X168795342Y-43900843D01*
X168753586Y-43927677D01*
X168724961Y-43949643D01*
X168709339Y-43956113D01*
X168687352Y-43970244D01*
X168645695Y-43982475D01*
X168616450Y-43994589D01*
X168594677Y-43997455D01*
X168564184Y-44006409D01*
X168526668Y-44006409D01*
X168499999Y-44009920D01*
X168473330Y-44006409D01*
X168435816Y-44006409D01*
X168405323Y-43997455D01*
X168383549Y-43994589D01*
X168354301Y-43982474D01*
X168312648Y-43970244D01*
X168290662Y-43956114D01*
X168275038Y-43949643D01*
X168246407Y-43927673D01*
X168204658Y-43900843D01*
X168191198Y-43885310D01*
X168181857Y-43878142D01*
X168157634Y-43846574D01*
X168120595Y-43803829D01*
X168114363Y-43790183D01*
X168110356Y-43784961D01*
X168094536Y-43746768D01*
X168067269Y-43687061D01*
X168065920Y-43677682D01*
X168065410Y-43676450D01*
X168061791Y-43648965D01*
X168049000Y-43560000D01*
X168061790Y-43471042D01*
X168065410Y-43443549D01*
X168065920Y-43442315D01*
X168067269Y-43432939D01*
X168094537Y-43373228D01*
X168110356Y-43335040D01*
X168114362Y-43329818D01*
X168120595Y-43316171D01*
X168157632Y-43273427D01*
X168181857Y-43241857D01*
X168191201Y-43234687D01*
X168204658Y-43219157D01*
X168246407Y-43192326D01*
X168275040Y-43170356D01*
X168290663Y-43163884D01*
X168312648Y-43149756D01*
X168354294Y-43137527D01*
X168383549Y-43125410D01*
X168405329Y-43122542D01*
X168435816Y-43113591D01*
X168473324Y-43113591D01*
X168500000Y-43110079D01*
X168526676Y-43113591D01*
G37*
G36*
X50076676Y-42113591D02*
G01*
X50114184Y-42113591D01*
X50144671Y-42122542D01*
X50166450Y-42125410D01*
X50195703Y-42137527D01*
X50237352Y-42149756D01*
X50259334Y-42163883D01*
X50274961Y-42170356D01*
X50303595Y-42192327D01*
X50345342Y-42219157D01*
X50358799Y-42234688D01*
X50368141Y-42241856D01*
X50392357Y-42273416D01*
X50429405Y-42316171D01*
X50435639Y-42329822D01*
X50439643Y-42335040D01*
X50455451Y-42373205D01*
X50482731Y-42432939D01*
X50484079Y-42442319D01*
X50484589Y-42443549D01*
X50488198Y-42470962D01*
X50501000Y-42560000D01*
X50488196Y-42649050D01*
X50484589Y-42676450D01*
X50484079Y-42677678D01*
X50482731Y-42687061D01*
X50455452Y-42746791D01*
X50439643Y-42784961D01*
X50435638Y-42790180D01*
X50429405Y-42803829D01*
X50392356Y-42846584D01*
X50368142Y-42878142D01*
X50358803Y-42885308D01*
X50345342Y-42900843D01*
X50303586Y-42927677D01*
X50274961Y-42949643D01*
X50259339Y-42956113D01*
X50237352Y-42970244D01*
X50195695Y-42982475D01*
X50166450Y-42994589D01*
X50144677Y-42997455D01*
X50114184Y-43006409D01*
X50076669Y-43006409D01*
X50050000Y-43009920D01*
X50023331Y-43006409D01*
X49985816Y-43006409D01*
X49955323Y-42997455D01*
X49933549Y-42994589D01*
X49904301Y-42982474D01*
X49862648Y-42970244D01*
X49840662Y-42956114D01*
X49825038Y-42949643D01*
X49796407Y-42927673D01*
X49754658Y-42900843D01*
X49741198Y-42885310D01*
X49731857Y-42878142D01*
X49707634Y-42846574D01*
X49670595Y-42803829D01*
X49664363Y-42790183D01*
X49660356Y-42784961D01*
X49644536Y-42746768D01*
X49617269Y-42687061D01*
X49615920Y-42677682D01*
X49615410Y-42676450D01*
X49611791Y-42648965D01*
X49599000Y-42560000D01*
X49611790Y-42471042D01*
X49615410Y-42443549D01*
X49615920Y-42442315D01*
X49617269Y-42432939D01*
X49644537Y-42373228D01*
X49660356Y-42335040D01*
X49664362Y-42329818D01*
X49670595Y-42316171D01*
X49707632Y-42273427D01*
X49731857Y-42241857D01*
X49741201Y-42234687D01*
X49754658Y-42219157D01*
X49796407Y-42192326D01*
X49825040Y-42170356D01*
X49840663Y-42163884D01*
X49862648Y-42149756D01*
X49904294Y-42137527D01*
X49933549Y-42125410D01*
X49955329Y-42122542D01*
X49985816Y-42113591D01*
X50023324Y-42113591D01*
X50050000Y-42110079D01*
X50076676Y-42113591D01*
G37*
G36*
X163019517Y-40252882D02*
G01*
X163036062Y-40263938D01*
X163047118Y-40280483D01*
X163051000Y-40300000D01*
X163051000Y-42800000D01*
X163047118Y-42819517D01*
X163036062Y-42836062D01*
X163019517Y-42847118D01*
X163000000Y-42851000D01*
X158500000Y-42851000D01*
X158480483Y-42847118D01*
X158463938Y-42836062D01*
X158452882Y-42819517D01*
X158449000Y-42800000D01*
X158449000Y-40300000D01*
X158452882Y-40280483D01*
X158463938Y-40263938D01*
X158480483Y-40252882D01*
X158500000Y-40249000D01*
X163000000Y-40249000D01*
X163019517Y-40252882D01*
G37*
G36*
X164544694Y-41056646D02*
G01*
X164589126Y-41063684D01*
X164594923Y-41066637D01*
X164609479Y-41069533D01*
X164637973Y-41088572D01*
X164663887Y-41101776D01*
X164676278Y-41114167D01*
X164696992Y-41128008D01*
X164710832Y-41148721D01*
X164723223Y-41161112D01*
X164736425Y-41187023D01*
X164755467Y-41215521D01*
X164758362Y-41230078D01*
X164761315Y-41235873D01*
X164768349Y-41280284D01*
X164776000Y-41318750D01*
X164776000Y-41756250D01*
X164768348Y-41794718D01*
X164761315Y-41839126D01*
X164758362Y-41844919D01*
X164755467Y-41859479D01*
X164736423Y-41887979D01*
X164723223Y-41913887D01*
X164710834Y-41926275D01*
X164696992Y-41946992D01*
X164676275Y-41960834D01*
X164663887Y-41973223D01*
X164637979Y-41986423D01*
X164609479Y-42005467D01*
X164594919Y-42008362D01*
X164589126Y-42011315D01*
X164544718Y-42018348D01*
X164506250Y-42026000D01*
X163993750Y-42026000D01*
X163955284Y-42018349D01*
X163910873Y-42011315D01*
X163905078Y-42008362D01*
X163890521Y-42005467D01*
X163862023Y-41986425D01*
X163836112Y-41973223D01*
X163823721Y-41960832D01*
X163803008Y-41946992D01*
X163789167Y-41926278D01*
X163776776Y-41913887D01*
X163763572Y-41887973D01*
X163744533Y-41859479D01*
X163741637Y-41844923D01*
X163738684Y-41839126D01*
X163731646Y-41794694D01*
X163724000Y-41756250D01*
X163724000Y-41318750D01*
X163731646Y-41280309D01*
X163738684Y-41235873D01*
X163741638Y-41230075D01*
X163744533Y-41215521D01*
X163763570Y-41187029D01*
X163776776Y-41161112D01*
X163789169Y-41148718D01*
X163803008Y-41128008D01*
X163823718Y-41114169D01*
X163836112Y-41101776D01*
X163862029Y-41088570D01*
X163890521Y-41069533D01*
X163905075Y-41066638D01*
X163910873Y-41063684D01*
X163955309Y-41056646D01*
X163993750Y-41049000D01*
X164506250Y-41049000D01*
X164544694Y-41056646D01*
G37*
G36*
X67094694Y-40506646D02*
G01*
X67139126Y-40513684D01*
X67144923Y-40516637D01*
X67159479Y-40519533D01*
X67187973Y-40538572D01*
X67213887Y-40551776D01*
X67226278Y-40564167D01*
X67246992Y-40578008D01*
X67260832Y-40598721D01*
X67273223Y-40611112D01*
X67286425Y-40637023D01*
X67305467Y-40665521D01*
X67308362Y-40680078D01*
X67311315Y-40685873D01*
X67318349Y-40730284D01*
X67326000Y-40768750D01*
X67326000Y-41206250D01*
X67318348Y-41244718D01*
X67311315Y-41289126D01*
X67308362Y-41294919D01*
X67305467Y-41309479D01*
X67286423Y-41337979D01*
X67273223Y-41363887D01*
X67260834Y-41376275D01*
X67246992Y-41396992D01*
X67226275Y-41410834D01*
X67213887Y-41423223D01*
X67187979Y-41436423D01*
X67159479Y-41455467D01*
X67144919Y-41458362D01*
X67139126Y-41461315D01*
X67094718Y-41468348D01*
X67056250Y-41476000D01*
X66543750Y-41476000D01*
X66505284Y-41468349D01*
X66460873Y-41461315D01*
X66455078Y-41458362D01*
X66440521Y-41455467D01*
X66412023Y-41436425D01*
X66386112Y-41423223D01*
X66373721Y-41410832D01*
X66353008Y-41396992D01*
X66339167Y-41376278D01*
X66326776Y-41363887D01*
X66313572Y-41337973D01*
X66294533Y-41309479D01*
X66291637Y-41294923D01*
X66288684Y-41289126D01*
X66281646Y-41244694D01*
X66274000Y-41206250D01*
X66274000Y-40768750D01*
X66281646Y-40730309D01*
X66288684Y-40685873D01*
X66291638Y-40680075D01*
X66294533Y-40665521D01*
X66313570Y-40637029D01*
X66326776Y-40611112D01*
X66339169Y-40598718D01*
X66353008Y-40578008D01*
X66373718Y-40564169D01*
X66386112Y-40551776D01*
X66412029Y-40538570D01*
X66440521Y-40519533D01*
X66455075Y-40516638D01*
X66460873Y-40513684D01*
X66505309Y-40506646D01*
X66543750Y-40499000D01*
X67056250Y-40499000D01*
X67094694Y-40506646D01*
G37*
G36*
X71294694Y-39806646D02*
G01*
X71339126Y-39813684D01*
X71344923Y-39816637D01*
X71359479Y-39819533D01*
X71387973Y-39838572D01*
X71413887Y-39851776D01*
X71426278Y-39864167D01*
X71446992Y-39878008D01*
X71460832Y-39898721D01*
X71473223Y-39911112D01*
X71486425Y-39937023D01*
X71505467Y-39965521D01*
X71508362Y-39980078D01*
X71511315Y-39985873D01*
X71518349Y-40030284D01*
X71526000Y-40068750D01*
X71526000Y-40506250D01*
X71518348Y-40544718D01*
X71511315Y-40589126D01*
X71508362Y-40594919D01*
X71505467Y-40609479D01*
X71486423Y-40637979D01*
X71473223Y-40663887D01*
X71460834Y-40676275D01*
X71446992Y-40696992D01*
X71426275Y-40710834D01*
X71413887Y-40723223D01*
X71387979Y-40736423D01*
X71359479Y-40755467D01*
X71344919Y-40758362D01*
X71339126Y-40761315D01*
X71294718Y-40768348D01*
X71256250Y-40776000D01*
X70743750Y-40776000D01*
X70705284Y-40768349D01*
X70660873Y-40761315D01*
X70655078Y-40758362D01*
X70640521Y-40755467D01*
X70612023Y-40736425D01*
X70586112Y-40723223D01*
X70573721Y-40710832D01*
X70553008Y-40696992D01*
X70539167Y-40676278D01*
X70526776Y-40663887D01*
X70513572Y-40637973D01*
X70494533Y-40609479D01*
X70491637Y-40594923D01*
X70488684Y-40589126D01*
X70481646Y-40544694D01*
X70474000Y-40506250D01*
X70474000Y-40068750D01*
X70481646Y-40030309D01*
X70488684Y-39985873D01*
X70491638Y-39980075D01*
X70494533Y-39965521D01*
X70513570Y-39937029D01*
X70526776Y-39911112D01*
X70539169Y-39898718D01*
X70553008Y-39878008D01*
X70573718Y-39864169D01*
X70586112Y-39851776D01*
X70612029Y-39838570D01*
X70640521Y-39819533D01*
X70655075Y-39816638D01*
X70660873Y-39813684D01*
X70705309Y-39806646D01*
X70743750Y-39799000D01*
X71256250Y-39799000D01*
X71294694Y-39806646D01*
G37*
G36*
X164544694Y-39481646D02*
G01*
X164589126Y-39488684D01*
X164594923Y-39491637D01*
X164609479Y-39494533D01*
X164637973Y-39513572D01*
X164663887Y-39526776D01*
X164676278Y-39539167D01*
X164696992Y-39553008D01*
X164710832Y-39573721D01*
X164723223Y-39586112D01*
X164736425Y-39612023D01*
X164755467Y-39640521D01*
X164758362Y-39655078D01*
X164761315Y-39660873D01*
X164768349Y-39705284D01*
X164776000Y-39743750D01*
X164776000Y-40181250D01*
X164768348Y-40219718D01*
X164761315Y-40264126D01*
X164758362Y-40269919D01*
X164755467Y-40284479D01*
X164736423Y-40312979D01*
X164723223Y-40338887D01*
X164710834Y-40351275D01*
X164696992Y-40371992D01*
X164676275Y-40385834D01*
X164663887Y-40398223D01*
X164637979Y-40411423D01*
X164609479Y-40430467D01*
X164594919Y-40433362D01*
X164589126Y-40436315D01*
X164544718Y-40443348D01*
X164506250Y-40451000D01*
X163993750Y-40451000D01*
X163955284Y-40443349D01*
X163910873Y-40436315D01*
X163905078Y-40433362D01*
X163890521Y-40430467D01*
X163862023Y-40411425D01*
X163836112Y-40398223D01*
X163823721Y-40385832D01*
X163803008Y-40371992D01*
X163789167Y-40351278D01*
X163776776Y-40338887D01*
X163763572Y-40312973D01*
X163744533Y-40284479D01*
X163741637Y-40269923D01*
X163738684Y-40264126D01*
X163731646Y-40219694D01*
X163724000Y-40181250D01*
X163724000Y-39743750D01*
X163731646Y-39705309D01*
X163738684Y-39660873D01*
X163741638Y-39655075D01*
X163744533Y-39640521D01*
X163763570Y-39612029D01*
X163776776Y-39586112D01*
X163789169Y-39573718D01*
X163803008Y-39553008D01*
X163823718Y-39539169D01*
X163836112Y-39526776D01*
X163862029Y-39513570D01*
X163890521Y-39494533D01*
X163905075Y-39491638D01*
X163910873Y-39488684D01*
X163955309Y-39481646D01*
X163993750Y-39474000D01*
X164506250Y-39474000D01*
X164544694Y-39481646D01*
G37*
G36*
X67094694Y-38931646D02*
G01*
X67139126Y-38938684D01*
X67144923Y-38941637D01*
X67159479Y-38944533D01*
X67187973Y-38963572D01*
X67213887Y-38976776D01*
X67226278Y-38989167D01*
X67246992Y-39003008D01*
X67260832Y-39023721D01*
X67273223Y-39036112D01*
X67286425Y-39062023D01*
X67305467Y-39090521D01*
X67308362Y-39105078D01*
X67311315Y-39110873D01*
X67318349Y-39155284D01*
X67326000Y-39193750D01*
X67326000Y-39631250D01*
X67318348Y-39669718D01*
X67311315Y-39714126D01*
X67308362Y-39719919D01*
X67305467Y-39734479D01*
X67286423Y-39762979D01*
X67273223Y-39788887D01*
X67260834Y-39801275D01*
X67246992Y-39821992D01*
X67226275Y-39835834D01*
X67213887Y-39848223D01*
X67187979Y-39861423D01*
X67159479Y-39880467D01*
X67144919Y-39883362D01*
X67139126Y-39886315D01*
X67094718Y-39893348D01*
X67056250Y-39901000D01*
X66543750Y-39901000D01*
X66505284Y-39893349D01*
X66460873Y-39886315D01*
X66455078Y-39883362D01*
X66440521Y-39880467D01*
X66412023Y-39861425D01*
X66386112Y-39848223D01*
X66373721Y-39835832D01*
X66353008Y-39821992D01*
X66339167Y-39801278D01*
X66326776Y-39788887D01*
X66313572Y-39762973D01*
X66294533Y-39734479D01*
X66291637Y-39719923D01*
X66288684Y-39714126D01*
X66281646Y-39669694D01*
X66274000Y-39631250D01*
X66274000Y-39193750D01*
X66281646Y-39155309D01*
X66288684Y-39110873D01*
X66291638Y-39105075D01*
X66294533Y-39090521D01*
X66313570Y-39062029D01*
X66326776Y-39036112D01*
X66339169Y-39023718D01*
X66353008Y-39003008D01*
X66373718Y-38989169D01*
X66386112Y-38976776D01*
X66412029Y-38963570D01*
X66440521Y-38944533D01*
X66455075Y-38941638D01*
X66460873Y-38938684D01*
X66505309Y-38931646D01*
X66543750Y-38924000D01*
X67056250Y-38924000D01*
X67094694Y-38931646D01*
G37*
G36*
X71294694Y-38231646D02*
G01*
X71339126Y-38238684D01*
X71344923Y-38241637D01*
X71359479Y-38244533D01*
X71387973Y-38263572D01*
X71413887Y-38276776D01*
X71426278Y-38289167D01*
X71446992Y-38303008D01*
X71460832Y-38323721D01*
X71473223Y-38336112D01*
X71486425Y-38362023D01*
X71505467Y-38390521D01*
X71508362Y-38405078D01*
X71511315Y-38410873D01*
X71518349Y-38455284D01*
X71526000Y-38493750D01*
X71526000Y-38931250D01*
X71518348Y-38969718D01*
X71511315Y-39014126D01*
X71508362Y-39019919D01*
X71505467Y-39034479D01*
X71486423Y-39062979D01*
X71473223Y-39088887D01*
X71460834Y-39101275D01*
X71446992Y-39121992D01*
X71426275Y-39135834D01*
X71413887Y-39148223D01*
X71387979Y-39161423D01*
X71359479Y-39180467D01*
X71344919Y-39183362D01*
X71339126Y-39186315D01*
X71294718Y-39193348D01*
X71256250Y-39201000D01*
X70743750Y-39201000D01*
X70705284Y-39193349D01*
X70660873Y-39186315D01*
X70655078Y-39183362D01*
X70640521Y-39180467D01*
X70612023Y-39161425D01*
X70586112Y-39148223D01*
X70573721Y-39135832D01*
X70553008Y-39121992D01*
X70539167Y-39101278D01*
X70526776Y-39088887D01*
X70513572Y-39062973D01*
X70494533Y-39034479D01*
X70491637Y-39019923D01*
X70488684Y-39014126D01*
X70481646Y-38969694D01*
X70474000Y-38931250D01*
X70474000Y-38493750D01*
X70481646Y-38455309D01*
X70488684Y-38410873D01*
X70491638Y-38405075D01*
X70494533Y-38390521D01*
X70513570Y-38362029D01*
X70526776Y-38336112D01*
X70539169Y-38323718D01*
X70553008Y-38303008D01*
X70573718Y-38289169D01*
X70586112Y-38276776D01*
X70612029Y-38263570D01*
X70640521Y-38244533D01*
X70655075Y-38241638D01*
X70660873Y-38238684D01*
X70705309Y-38231646D01*
X70743750Y-38224000D01*
X71256250Y-38224000D01*
X71294694Y-38231646D01*
G37*
G36*
X94369517Y-36852882D02*
G01*
X94386062Y-36863938D01*
X94397118Y-36880483D01*
X94401000Y-36900000D01*
X94401000Y-38600000D01*
X94397118Y-38619517D01*
X94386062Y-38636062D01*
X94369517Y-38647118D01*
X94350000Y-38651000D01*
X92650000Y-38651000D01*
X92630483Y-38647118D01*
X92613938Y-38636062D01*
X92602882Y-38619517D01*
X92599000Y-38600000D01*
X92599000Y-36900000D01*
X92602882Y-36880483D01*
X92613938Y-36863938D01*
X92630483Y-36852882D01*
X92650000Y-36849000D01*
X94350000Y-36849000D01*
X94369517Y-36852882D01*
G37*
G36*
X88463983Y-36853936D02*
G01*
X88514180Y-36853936D01*
X88557524Y-36863149D01*
X88595659Y-36866905D01*
X88643566Y-36881437D01*
X88698424Y-36893098D01*
X88733530Y-36908728D01*
X88764566Y-36918143D01*
X88813884Y-36944504D01*
X88870500Y-36969711D01*
X88896822Y-36988835D01*
X88920232Y-37001348D01*
X88967988Y-37040540D01*
X89022887Y-37080427D01*
X89040711Y-37100223D01*
X89056675Y-37113324D01*
X89099572Y-37165594D01*
X89148924Y-37220405D01*
X89159292Y-37238363D01*
X89168651Y-37249767D01*
X89203273Y-37314542D01*
X89243104Y-37383530D01*
X89247685Y-37397630D01*
X89251856Y-37405433D01*
X89274852Y-37481242D01*
X89301311Y-37562672D01*
X89302242Y-37571532D01*
X89303094Y-37574340D01*
X89311384Y-37658513D01*
X89321000Y-37750000D01*
X89311383Y-37841494D01*
X89303094Y-37925659D01*
X89302242Y-37928466D01*
X89301311Y-37937328D01*
X89274848Y-38018771D01*
X89251856Y-38094566D01*
X89247686Y-38102366D01*
X89243104Y-38116470D01*
X89203266Y-38185470D01*
X89168651Y-38250232D01*
X89159294Y-38261633D01*
X89148924Y-38279595D01*
X89099563Y-38334415D01*
X89056675Y-38386675D01*
X89040714Y-38399773D01*
X89022887Y-38419573D01*
X88967977Y-38459467D01*
X88920232Y-38498651D01*
X88896827Y-38511161D01*
X88870500Y-38530289D01*
X88813873Y-38555500D01*
X88764566Y-38581856D01*
X88733537Y-38591268D01*
X88698424Y-38606902D01*
X88643555Y-38618564D01*
X88595659Y-38633094D01*
X88557532Y-38636849D01*
X88514180Y-38646064D01*
X88463973Y-38646064D01*
X88420000Y-38650395D01*
X88376027Y-38646064D01*
X88325820Y-38646064D01*
X88282467Y-38636849D01*
X88244340Y-38633094D01*
X88196441Y-38618563D01*
X88141576Y-38606902D01*
X88106464Y-38591269D01*
X88075433Y-38581856D01*
X88026120Y-38555498D01*
X87969500Y-38530289D01*
X87943175Y-38511163D01*
X87919767Y-38498651D01*
X87872013Y-38459460D01*
X87817113Y-38419573D01*
X87799287Y-38399776D01*
X87783324Y-38386675D01*
X87740425Y-38334402D01*
X87691076Y-38279595D01*
X87680708Y-38261637D01*
X87671348Y-38250232D01*
X87636719Y-38185447D01*
X87596896Y-38116470D01*
X87592315Y-38102371D01*
X87588143Y-38094566D01*
X87565136Y-38018725D01*
X87538689Y-37937328D01*
X87537758Y-37928471D01*
X87536905Y-37925659D01*
X87528600Y-37841342D01*
X87519000Y-37750000D01*
X87528599Y-37658664D01*
X87536905Y-37574340D01*
X87537758Y-37571527D01*
X87538689Y-37562672D01*
X87565132Y-37481288D01*
X87588143Y-37405433D01*
X87592315Y-37397626D01*
X87596896Y-37383530D01*
X87636712Y-37314565D01*
X87671348Y-37249767D01*
X87680710Y-37238359D01*
X87691076Y-37220405D01*
X87740416Y-37165607D01*
X87783324Y-37113324D01*
X87799291Y-37100219D01*
X87817113Y-37080427D01*
X87872002Y-37040546D01*
X87919767Y-37001348D01*
X87943180Y-36988833D01*
X87969500Y-36969711D01*
X88026109Y-36944506D01*
X88075433Y-36918143D01*
X88106471Y-36908727D01*
X88141576Y-36893098D01*
X88196430Y-36881438D01*
X88244340Y-36866905D01*
X88282476Y-36863148D01*
X88325820Y-36853936D01*
X88376016Y-36853936D01*
X88420000Y-36849604D01*
X88463983Y-36853936D01*
G37*
G36*
X91003983Y-36853936D02*
G01*
X91054180Y-36853936D01*
X91097524Y-36863149D01*
X91135659Y-36866905D01*
X91183566Y-36881437D01*
X91238424Y-36893098D01*
X91273530Y-36908728D01*
X91304566Y-36918143D01*
X91353884Y-36944504D01*
X91410500Y-36969711D01*
X91436822Y-36988835D01*
X91460232Y-37001348D01*
X91507988Y-37040540D01*
X91562887Y-37080427D01*
X91580711Y-37100223D01*
X91596675Y-37113324D01*
X91639572Y-37165594D01*
X91688924Y-37220405D01*
X91699292Y-37238363D01*
X91708651Y-37249767D01*
X91743273Y-37314542D01*
X91783104Y-37383530D01*
X91787685Y-37397630D01*
X91791856Y-37405433D01*
X91814852Y-37481242D01*
X91841311Y-37562672D01*
X91842242Y-37571532D01*
X91843094Y-37574340D01*
X91851384Y-37658513D01*
X91861000Y-37750000D01*
X91851383Y-37841494D01*
X91843094Y-37925659D01*
X91842242Y-37928466D01*
X91841311Y-37937328D01*
X91814848Y-38018771D01*
X91791856Y-38094566D01*
X91787686Y-38102366D01*
X91783104Y-38116470D01*
X91743266Y-38185470D01*
X91708651Y-38250232D01*
X91699294Y-38261633D01*
X91688924Y-38279595D01*
X91639563Y-38334415D01*
X91596675Y-38386675D01*
X91580714Y-38399773D01*
X91562887Y-38419573D01*
X91507977Y-38459467D01*
X91460232Y-38498651D01*
X91436827Y-38511161D01*
X91410500Y-38530289D01*
X91353873Y-38555500D01*
X91304566Y-38581856D01*
X91273537Y-38591268D01*
X91238424Y-38606902D01*
X91183555Y-38618564D01*
X91135659Y-38633094D01*
X91097532Y-38636849D01*
X91054180Y-38646064D01*
X91003973Y-38646064D01*
X90960000Y-38650395D01*
X90916027Y-38646064D01*
X90865820Y-38646064D01*
X90822467Y-38636849D01*
X90784340Y-38633094D01*
X90736441Y-38618563D01*
X90681576Y-38606902D01*
X90646464Y-38591269D01*
X90615433Y-38581856D01*
X90566120Y-38555498D01*
X90509500Y-38530289D01*
X90483175Y-38511163D01*
X90459767Y-38498651D01*
X90412013Y-38459460D01*
X90357113Y-38419573D01*
X90339287Y-38399776D01*
X90323324Y-38386675D01*
X90280425Y-38334402D01*
X90231076Y-38279595D01*
X90220708Y-38261637D01*
X90211348Y-38250232D01*
X90176719Y-38185447D01*
X90136896Y-38116470D01*
X90132315Y-38102371D01*
X90128143Y-38094566D01*
X90105136Y-38018725D01*
X90078689Y-37937328D01*
X90077758Y-37928471D01*
X90076905Y-37925659D01*
X90068600Y-37841342D01*
X90059000Y-37750000D01*
X90068599Y-37658664D01*
X90076905Y-37574340D01*
X90077758Y-37571527D01*
X90078689Y-37562672D01*
X90105132Y-37481288D01*
X90128143Y-37405433D01*
X90132315Y-37397626D01*
X90136896Y-37383530D01*
X90176712Y-37314565D01*
X90211348Y-37249767D01*
X90220710Y-37238359D01*
X90231076Y-37220405D01*
X90280416Y-37165607D01*
X90323324Y-37113324D01*
X90339291Y-37100219D01*
X90357113Y-37080427D01*
X90412002Y-37040546D01*
X90459767Y-37001348D01*
X90483180Y-36988833D01*
X90509500Y-36969711D01*
X90566109Y-36944506D01*
X90615433Y-36918143D01*
X90646471Y-36908727D01*
X90681576Y-36893098D01*
X90736430Y-36881438D01*
X90784340Y-36866905D01*
X90822476Y-36863148D01*
X90865820Y-36853936D01*
X90916016Y-36853936D01*
X90960000Y-36849604D01*
X91003983Y-36853936D01*
G37*
G36*
X157844517Y-37557882D02*
G01*
X157861062Y-37568938D01*
X157872118Y-37585483D01*
X157876000Y-37605000D01*
X157876000Y-38205000D01*
X157872118Y-38224517D01*
X157861062Y-38241062D01*
X157844517Y-38252118D01*
X157825000Y-38256000D01*
X156275000Y-38256000D01*
X156255483Y-38252118D01*
X156238938Y-38241062D01*
X156227882Y-38224517D01*
X156224000Y-38205000D01*
X156224000Y-37605000D01*
X156227882Y-37585483D01*
X156238938Y-37568938D01*
X156255483Y-37557882D01*
X156275000Y-37554000D01*
X157825000Y-37554000D01*
X157844517Y-37557882D01*
G37*
G36*
X163244517Y-37557882D02*
G01*
X163261062Y-37568938D01*
X163272118Y-37585483D01*
X163276000Y-37605000D01*
X163276000Y-38205000D01*
X163272118Y-38224517D01*
X163261062Y-38241062D01*
X163244517Y-38252118D01*
X163225000Y-38256000D01*
X161675000Y-38256000D01*
X161655483Y-38252118D01*
X161638938Y-38241062D01*
X161627882Y-38224517D01*
X161624000Y-38205000D01*
X161624000Y-37605000D01*
X161627882Y-37585483D01*
X161638938Y-37568938D01*
X161655483Y-37557882D01*
X161675000Y-37554000D01*
X163225000Y-37554000D01*
X163244517Y-37557882D01*
G37*
G36*
X157844517Y-36287882D02*
G01*
X157861062Y-36298938D01*
X157872118Y-36315483D01*
X157876000Y-36335000D01*
X157876000Y-36935000D01*
X157872118Y-36954517D01*
X157861062Y-36971062D01*
X157844517Y-36982118D01*
X157825000Y-36986000D01*
X156275000Y-36986000D01*
X156255483Y-36982118D01*
X156238938Y-36971062D01*
X156227882Y-36954517D01*
X156224000Y-36935000D01*
X156224000Y-36335000D01*
X156227882Y-36315483D01*
X156238938Y-36298938D01*
X156255483Y-36287882D01*
X156275000Y-36284000D01*
X157825000Y-36284000D01*
X157844517Y-36287882D01*
G37*
G36*
X163244517Y-36287882D02*
G01*
X163261062Y-36298938D01*
X163272118Y-36315483D01*
X163276000Y-36335000D01*
X163276000Y-36935000D01*
X163272118Y-36954517D01*
X163261062Y-36971062D01*
X163244517Y-36982118D01*
X163225000Y-36986000D01*
X161675000Y-36986000D01*
X161655483Y-36982118D01*
X161638938Y-36971062D01*
X161627882Y-36954517D01*
X161624000Y-36935000D01*
X161624000Y-36335000D01*
X161627882Y-36315483D01*
X161638938Y-36298938D01*
X161655483Y-36287882D01*
X161675000Y-36284000D01*
X163225000Y-36284000D01*
X163244517Y-36287882D01*
G37*
G36*
X168526676Y-35993591D02*
G01*
X168564184Y-35993591D01*
X168594671Y-36002542D01*
X168616450Y-36005410D01*
X168645703Y-36017527D01*
X168687352Y-36029756D01*
X168709334Y-36043883D01*
X168724961Y-36050356D01*
X168753595Y-36072327D01*
X168795342Y-36099157D01*
X168808799Y-36114688D01*
X168818141Y-36121856D01*
X168842357Y-36153416D01*
X168879405Y-36196171D01*
X168885639Y-36209822D01*
X168889643Y-36215040D01*
X168905451Y-36253205D01*
X168932731Y-36312939D01*
X168934079Y-36322319D01*
X168934589Y-36323549D01*
X168938197Y-36350960D01*
X168951000Y-36440000D01*
X168938196Y-36529048D01*
X168934589Y-36556450D01*
X168934079Y-36557678D01*
X168932731Y-36567061D01*
X168905452Y-36626791D01*
X168889643Y-36664961D01*
X168885638Y-36670180D01*
X168879405Y-36683829D01*
X168842356Y-36726584D01*
X168818142Y-36758142D01*
X168808803Y-36765308D01*
X168795342Y-36780843D01*
X168753586Y-36807677D01*
X168724961Y-36829643D01*
X168709339Y-36836113D01*
X168687352Y-36850244D01*
X168645695Y-36862475D01*
X168616450Y-36874589D01*
X168594677Y-36877455D01*
X168564184Y-36886409D01*
X168526668Y-36886409D01*
X168499999Y-36889920D01*
X168473330Y-36886409D01*
X168435816Y-36886409D01*
X168405323Y-36877455D01*
X168383549Y-36874589D01*
X168354301Y-36862474D01*
X168312648Y-36850244D01*
X168290662Y-36836114D01*
X168275038Y-36829643D01*
X168246407Y-36807673D01*
X168204658Y-36780843D01*
X168191198Y-36765310D01*
X168181857Y-36758142D01*
X168157634Y-36726574D01*
X168120595Y-36683829D01*
X168114363Y-36670183D01*
X168110356Y-36664961D01*
X168094536Y-36626768D01*
X168067269Y-36567061D01*
X168065920Y-36557682D01*
X168065410Y-36556450D01*
X168061791Y-36528965D01*
X168049000Y-36440000D01*
X168061790Y-36351042D01*
X168065410Y-36323549D01*
X168065920Y-36322315D01*
X168067269Y-36312939D01*
X168094537Y-36253228D01*
X168110356Y-36215040D01*
X168114362Y-36209818D01*
X168120595Y-36196171D01*
X168157632Y-36153427D01*
X168181857Y-36121857D01*
X168191201Y-36114687D01*
X168204658Y-36099157D01*
X168246407Y-36072326D01*
X168275040Y-36050356D01*
X168290663Y-36043884D01*
X168312648Y-36029756D01*
X168354294Y-36017527D01*
X168383549Y-36005410D01*
X168405329Y-36002542D01*
X168435816Y-35993591D01*
X168473324Y-35993591D01*
X168500000Y-35990079D01*
X168526676Y-35993591D01*
G37*
G36*
X50076676Y-34993591D02*
G01*
X50114184Y-34993591D01*
X50144671Y-35002542D01*
X50166450Y-35005410D01*
X50195703Y-35017527D01*
X50237352Y-35029756D01*
X50259334Y-35043883D01*
X50274961Y-35050356D01*
X50303595Y-35072327D01*
X50345342Y-35099157D01*
X50358799Y-35114688D01*
X50368141Y-35121856D01*
X50392357Y-35153416D01*
X50429405Y-35196171D01*
X50435639Y-35209822D01*
X50439643Y-35215040D01*
X50455451Y-35253205D01*
X50482731Y-35312939D01*
X50484079Y-35322319D01*
X50484589Y-35323549D01*
X50488198Y-35350962D01*
X50501000Y-35440000D01*
X50488196Y-35529050D01*
X50484589Y-35556450D01*
X50484079Y-35557678D01*
X50482731Y-35567061D01*
X50455452Y-35626791D01*
X50439643Y-35664961D01*
X50435638Y-35670180D01*
X50429405Y-35683829D01*
X50392356Y-35726584D01*
X50368142Y-35758142D01*
X50358803Y-35765308D01*
X50345342Y-35780843D01*
X50303586Y-35807677D01*
X50274961Y-35829643D01*
X50259339Y-35836113D01*
X50237352Y-35850244D01*
X50195695Y-35862475D01*
X50166450Y-35874589D01*
X50144677Y-35877455D01*
X50114184Y-35886409D01*
X50076669Y-35886409D01*
X50050000Y-35889920D01*
X50023331Y-35886409D01*
X49985816Y-35886409D01*
X49955323Y-35877455D01*
X49933549Y-35874589D01*
X49904301Y-35862474D01*
X49862648Y-35850244D01*
X49840662Y-35836114D01*
X49825038Y-35829643D01*
X49796407Y-35807673D01*
X49754658Y-35780843D01*
X49741198Y-35765310D01*
X49731857Y-35758142D01*
X49707634Y-35726574D01*
X49670595Y-35683829D01*
X49664363Y-35670183D01*
X49660356Y-35664961D01*
X49644536Y-35626768D01*
X49617269Y-35567061D01*
X49615920Y-35557682D01*
X49615410Y-35556450D01*
X49611791Y-35528965D01*
X49599000Y-35440000D01*
X49611790Y-35351042D01*
X49615410Y-35323549D01*
X49615920Y-35322315D01*
X49617269Y-35312939D01*
X49644537Y-35253228D01*
X49660356Y-35215040D01*
X49664362Y-35209818D01*
X49670595Y-35196171D01*
X49707632Y-35153427D01*
X49731857Y-35121857D01*
X49741201Y-35114687D01*
X49754658Y-35099157D01*
X49796407Y-35072326D01*
X49825040Y-35050356D01*
X49840663Y-35043884D01*
X49862648Y-35029756D01*
X49904294Y-35017527D01*
X49933549Y-35005410D01*
X49955329Y-35002542D01*
X49985816Y-34993591D01*
X50023324Y-34993591D01*
X50050000Y-34990079D01*
X50076676Y-34993591D01*
G37*
G36*
X157844517Y-35017882D02*
G01*
X157861062Y-35028938D01*
X157872118Y-35045483D01*
X157876000Y-35065000D01*
X157876000Y-35665000D01*
X157872118Y-35684517D01*
X157861062Y-35701062D01*
X157844517Y-35712118D01*
X157825000Y-35716000D01*
X156275000Y-35716000D01*
X156255483Y-35712118D01*
X156238938Y-35701062D01*
X156227882Y-35684517D01*
X156224000Y-35665000D01*
X156224000Y-35065000D01*
X156227882Y-35045483D01*
X156238938Y-35028938D01*
X156255483Y-35017882D01*
X156275000Y-35014000D01*
X157825000Y-35014000D01*
X157844517Y-35017882D01*
G37*
G36*
X163244517Y-35017882D02*
G01*
X163261062Y-35028938D01*
X163272118Y-35045483D01*
X163276000Y-35065000D01*
X163276000Y-35665000D01*
X163272118Y-35684517D01*
X163261062Y-35701062D01*
X163244517Y-35712118D01*
X163225000Y-35716000D01*
X161675000Y-35716000D01*
X161655483Y-35712118D01*
X161638938Y-35701062D01*
X161627882Y-35684517D01*
X161624000Y-35665000D01*
X161624000Y-35065000D01*
X161627882Y-35045483D01*
X161638938Y-35028938D01*
X161655483Y-35017882D01*
X161675000Y-35014000D01*
X163225000Y-35014000D01*
X163244517Y-35017882D01*
G37*
G36*
X157844517Y-33747882D02*
G01*
X157861062Y-33758938D01*
X157872118Y-33775483D01*
X157876000Y-33795000D01*
X157876000Y-34395000D01*
X157872118Y-34414517D01*
X157861062Y-34431062D01*
X157844517Y-34442118D01*
X157825000Y-34446000D01*
X156275000Y-34446000D01*
X156255483Y-34442118D01*
X156238938Y-34431062D01*
X156227882Y-34414517D01*
X156224000Y-34395000D01*
X156224000Y-33795000D01*
X156227882Y-33775483D01*
X156238938Y-33758938D01*
X156255483Y-33747882D01*
X156275000Y-33744000D01*
X157825000Y-33744000D01*
X157844517Y-33747882D01*
G37*
G36*
X163244517Y-33747882D02*
G01*
X163261062Y-33758938D01*
X163272118Y-33775483D01*
X163276000Y-33795000D01*
X163276000Y-34395000D01*
X163272118Y-34414517D01*
X163261062Y-34431062D01*
X163244517Y-34442118D01*
X163225000Y-34446000D01*
X161675000Y-34446000D01*
X161655483Y-34442118D01*
X161638938Y-34431062D01*
X161627882Y-34414517D01*
X161624000Y-34395000D01*
X161624000Y-33795000D01*
X161627882Y-33775483D01*
X161638938Y-33758938D01*
X161655483Y-33747882D01*
X161675000Y-33744000D01*
X163225000Y-33744000D01*
X163244517Y-33747882D01*
G37*
M02*
